<svg width="60" height="51" viewBox="0 0 70 61" fill="none" xmlns="http://www.w3.org/2000/svg">
<g clip-path="url(#clip0_98_3400)">
<path fill-rule="evenodd" clip-rule="evenodd" d="M35.9495 0.450195H19.8596C14.6749 1.16256 16.4564 11.0495 19.502 10.9576C25.4017 10.7795 26.8319 10.9576 30.0498 13.2728C32.8155 15.2626 34.113 17.9031 34.3405 20.3964C34.5842 23.0678 34.8053 27.3063 30.9437 30.7257C26.1167 34.9999 20.7534 33.7533 18.2506 32.8628C16.2483 32.1504 16.4628 32.9222 16.8204 33.3971C19.1445 35.178 24.6865 35.5342 27.9045 34.1094C30.4789 32.9697 30.8841 33.6345 30.7649 34.1094C37.4725 33.2742 38.4683 28.744 38.1214 26.4325C37.4414 26.3224 36.9223 25.7348 36.9223 25.0263C36.9223 24.2394 37.5626 23.6016 38.3525 23.6016C39.1424 23.6016 39.7827 24.2394 39.7827 25.0263C39.7827 25.5631 39.4847 26.0305 39.0446 26.2734H39.1675V26.9858C39.1675 33.8245 33.4466 35.5342 30.5862 35.5342V38.0274H19.8596C17.893 38.0274 16.8204 38.3836 16.8204 41.055C16.8204 43.1921 18.0122 43.7264 18.6081 43.7264H33.9829C49.7153 45.1511 55.0786 36.0684 52.7545 29.1229C50.8952 23.5664 46.1397 21.8211 43.9944 21.643C51.503 18.4374 52.0394 11.4918 49.1789 5.97102C46.8906 1.55436 39.4058 0.450195 35.9495 0.450195ZM39.4081 14.2382C39.5836 14.5497 39.4587 14.9406 39.1405 15.1052C38.8224 15.2699 38.4315 15.1457 38.2553 14.8347C36.8369 12.3304 34.8563 10.1865 32.4685 8.57084C32.1719 8.37018 32.0802 7.97185 32.2712 7.66965C32.4622 7.36744 32.8637 7.27585 33.1607 7.47585C35.7431 9.21477 37.8825 11.5305 39.4081 14.2382ZM36.2829 15.3562C36.4763 15.6569 36.3746 16.0545 36.0666 16.2373C35.7586 16.4202 35.3611 16.319 35.1671 16.0187C33.9222 14.0929 32.3319 12.4119 30.4758 11.06C30.1864 10.8492 30.1086 10.4479 30.31 10.1525C30.5115 9.85707 30.9159 9.77941 31.2057 9.98955C33.2183 11.4485 34.9401 13.2686 36.2829 15.3562Z" fill="#FFBB15"/>
<ellipse cx="22.8689" cy="22.5341" rx="3.39676" ry="3.38373" fill="#FFBB15"/>
<path d="M0 53.3296H3.79436C4.60195 53.3296 5.23601 53.4892 5.69654 53.8083C6.15707 54.1274 6.38734 54.5596 6.38734 55.1048C6.38734 55.5037 6.26052 55.8428 6.0069 56.1221C5.75995 56.3947 5.42289 56.5808 4.99574 56.6806C5.50299 56.7869 5.91012 56.9864 6.21714 57.2789C6.52416 57.5648 6.67767 57.9405 6.67767 58.4059C6.67767 58.9843 6.43739 59.4464 5.95684 59.7922C5.48296 60.1379 4.84223 60.3108 4.03463 60.3108H0V53.3296ZM1.95224 57.3188V58.9744H3.6542C3.96122 58.9744 4.20483 58.9012 4.38504 58.755C4.57192 58.6087 4.66536 58.4059 4.66536 58.1466C4.66536 57.8873 4.57192 57.6845 4.38504 57.5382C4.20483 57.392 3.96122 57.3188 3.6542 57.3188H1.95224ZM3.47399 56.2218C3.75431 56.2218 3.98124 56.152 4.15477 56.0124C4.33498 55.8727 4.42508 55.6799 4.42508 55.4339C4.42508 55.1813 4.33498 54.9884 4.15477 54.8555C3.97456 54.7159 3.74096 54.646 3.45397 54.646H1.95224V56.2218H3.47399Z" fill="white"/>
<path d="M7.74702 53.3296H9.70928V57.4884C9.70928 57.9405 9.82608 58.2995 10.0597 58.5655C10.2933 58.8314 10.627 58.9644 11.0608 58.9644C11.4947 58.9644 11.8284 58.8314 12.062 58.5655C12.2956 58.2995 12.4124 57.9405 12.4124 57.4884V53.3296H14.3846V57.5781C14.3846 58.5023 14.0876 59.2137 13.4936 59.7124C12.8996 60.2044 12.0887 60.4504 11.0608 60.4504C10.0196 60.4504 9.20536 60.2011 8.61802 59.7024C8.03735 59.2037 7.74702 58.4957 7.74702 57.5781V53.3296Z" fill="white"/>
<path d="M15.5091 60.3108V59.2237L18.893 54.8555H15.6093V53.3296H21.6662V54.4466L18.3124 58.7849H21.9365V60.3108H15.5091Z" fill="white"/>
<path d="M22.8465 60.3108V59.2237L26.2304 54.8555H22.9466V53.3296H29.0035V54.4466L25.6497 58.7849H29.2739V60.3108H22.8465Z" fill="white"/>
<path d="M36.2808 53.3296V54.8455H32.4064V56.152H35.6701V57.3388H32.4064V58.7849H36.481V60.3108H30.4541V53.3296H36.2808Z" fill="white"/>
<path d="M37.6643 60.3108V53.3296H41.2985C42.2196 53.3296 42.9371 53.5357 43.451 53.9479C43.9649 54.3601 44.2219 54.9286 44.2219 55.6533C44.2219 56.1586 44.0951 56.5908 43.8414 56.9498C43.5945 57.3022 43.2508 57.5682 42.8103 57.7477L44.332 60.3108H42.1195L40.878 58.1067H39.6366V60.3108H37.6643ZM41.0382 56.7903C41.392 56.7903 41.679 56.7071 41.8992 56.5409C42.1261 56.3681 42.2396 56.1221 42.2396 55.8029C42.2396 55.4771 42.1328 55.2311 41.9192 55.0649C41.7057 54.8987 41.4187 54.8156 41.0582 54.8156H39.6366V56.7903H41.0382Z" fill="white"/>
<path d="M48.0212 60.3108L51.0146 53.3296H52.2961L55.2795 60.3108H54.1983L53.5175 58.7051H49.7932L49.1124 60.3108H48.0212ZM53.2372 58.007L51.6453 54.3867L50.0635 58.007H53.2372Z" fill="white"/>
<path d="M56.4835 60.3108V53.3296H59.9374C60.725 53.3296 61.3557 53.539 61.8296 53.9579C62.3102 54.3701 62.5504 54.9186 62.5504 55.6035C62.5504 56.2883 62.3102 56.8434 61.8296 57.269C61.3557 57.6878 60.725 57.8973 59.9374 57.8973H57.5447V60.3108H56.4835ZM57.5447 57.0994H59.8273C60.3279 57.0994 60.7283 56.9631 61.0287 56.6905C61.3357 56.4113 61.4892 56.0556 61.4892 55.6234C61.4892 55.1846 61.339 54.8322 61.0387 54.5663C60.7383 54.2937 60.3379 54.1574 59.8373 54.1574H57.5447V57.0994Z" fill="white"/>
<path d="M63.933 60.3108V53.3296H67.387C68.1746 53.3296 68.8053 53.539 69.2792 53.9579C69.7597 54.3701 70 54.9186 70 55.6035C70 56.2883 69.7597 56.8434 69.2792 57.269C68.8053 57.6878 68.1746 57.8973 67.387 57.8973H64.9942V60.3108H63.933ZM64.9942 57.0994H67.2769C67.7774 57.0994 68.1779 56.9631 68.4782 56.6905C68.7853 56.4113 68.9388 56.0556 68.9388 55.6234C68.9388 55.1846 68.7886 54.8322 68.4883 54.5663C68.1879 54.2937 67.7875 54.1574 67.2869 54.1574H64.9942V57.0994Z" fill="white"/>
</g>
<defs>
<clipPath id="clip0_98_3400">
<rect width="70" height="60" fill="white" transform="translate(0 0.450195)"/>
</clipPath>
</defs>
</svg>
