<svg width="210" height="180" viewBox="0 0 210 180" fill="none" xmlns="http://www.w3.org/2000/svg">
<path fill-rule="evenodd" clip-rule="evenodd" d="M107.848 0H59.5785C44.0244 2.1371 49.369 31.7981 58.5058 31.5223C76.2049 30.988 80.4956 31.5223 90.1494 38.4679C98.4465 44.4374 102.339 52.3591 103.021 59.8389C103.753 67.8531 104.416 80.5689 92.8311 90.827C78.3501 103.65 62.2602 99.9097 54.7515 97.2383C48.7446 95.1012 49.3882 97.4164 50.4608 98.8411C57.4332 104.184 74.0595 105.252 83.7135 100.978C91.4367 97.5588 92.6524 99.5535 92.2948 100.978C112.418 98.4725 115.405 84.8815 114.364 77.947C112.324 77.6167 110.767 75.8537 110.767 73.7284C110.767 71.3678 112.688 69.4542 115.058 69.4542C117.428 69.4542 119.349 71.3678 119.349 73.7284C119.349 75.3389 118.454 76.7414 117.133 77.4701H117.502V79.6072C117.502 100.123 100.34 105.252 91.7585 105.252V112.732H59.5785C53.6788 112.732 50.4608 113.801 50.4608 121.815C50.4608 128.226 54.0364 129.829 55.8242 129.829H101.949C149.146 134.103 165.236 106.855 158.264 86.0185C152.686 69.3491 138.419 64.1131 131.983 63.5789C154.509 53.9619 156.118 33.1251 147.537 16.5626C140.672 3.31251 118.218 0 107.848 0ZM118.224 41.3633C118.751 42.2976 118.376 43.4705 117.422 43.9644C116.467 44.4582 115.295 44.0858 114.766 43.1527C110.511 35.6397 104.569 29.208 97.4055 24.3611C96.5158 23.7591 96.2405 22.5641 96.8136 21.6575C97.3867 20.7508 98.5911 20.4761 99.4822 21.0761C107.229 26.2928 113.648 33.24 118.224 41.3633ZM108.849 44.7174C109.429 45.6195 109.124 46.8121 108.2 47.3606C107.276 47.9091 106.084 47.6055 105.501 46.7047C101.767 40.9273 96.9958 35.8843 91.4275 31.8285C90.5593 31.1961 90.3257 29.9923 90.93 29.106C91.5344 28.2198 92.7476 27.9868 93.6172 28.6172C99.6548 32.9941 104.82 38.4543 108.849 44.7174Z" fill="#FFBB15"/>
<ellipse cx="68.6063" cy="66.2518" rx="10.1903" ry="10.1512" fill="#FFBB15"/>
<path d="M-0.000488281 158.637H11.3826C13.8054 158.637 15.7076 159.115 17.0892 160.073C18.4708 161.03 19.1616 162.327 19.1616 163.962C19.1616 165.159 18.7812 166.176 18.0203 167.014C17.2794 167.832 16.2683 168.39 14.9868 168.69C16.5086 169.009 17.73 169.607 18.651 170.485C19.5721 171.343 20.0326 172.469 20.0326 173.866C20.0326 175.601 19.3118 176.987 17.8701 178.025C16.4485 179.062 14.5263 179.58 12.1035 179.58H-0.000488281V158.637ZM5.85627 170.605V175.571H10.9622C11.8832 175.571 12.6141 175.352 13.1547 174.913C13.7153 174.474 13.9957 173.866 13.9957 173.088C13.9957 172.31 13.7153 171.702 13.1547 171.263C12.6141 170.824 11.8832 170.605 10.9622 170.605H5.85627ZM10.4215 167.313C11.2625 167.313 11.9433 167.104 12.4639 166.685C13.0045 166.266 13.2748 165.688 13.2748 164.95C13.2748 164.192 13.0045 163.613 12.4639 163.214C11.9233 162.796 11.2225 162.586 10.3615 162.586H5.85627V167.313H10.4215Z" fill="white"/>
<path d="M23.2407 158.637H29.1275V171.113C29.1275 172.469 29.4779 173.547 30.1787 174.344C30.8795 175.142 31.8807 175.541 33.1822 175.541C34.4837 175.541 35.4848 175.142 36.1856 174.344C36.8864 173.547 37.2368 172.469 37.2368 171.113V158.637H43.1537V171.382C43.1537 174.155 42.2626 176.289 40.4806 177.785C38.6985 179.261 36.2657 179.999 33.1822 179.999C30.0586 179.999 27.6157 179.251 25.8537 177.755C24.1117 176.259 23.2407 174.135 23.2407 171.382V158.637Z" fill="white"/>
<path d="M46.5272 179.58V176.319L56.6789 163.214H46.8275V158.637H64.9985V161.988L54.9369 175.003H65.8094V179.58H46.5272Z" fill="white"/>
<path d="M68.5393 179.58V176.319L78.691 163.214H68.8396V158.637H87.0106V161.988L76.949 175.003H87.8215V179.58H68.5393Z" fill="white"/>
<path d="M108.842 158.637V163.184H97.2191V167.104H107.01V170.664H97.2191V175.003H109.443V179.58H91.3623V158.637H108.842Z" fill="white"/>
<path d="M112.993 179.58V158.637H123.896C126.659 158.637 128.811 159.255 130.353 160.492C131.895 161.728 132.666 163.434 132.666 165.608C132.666 167.124 132.285 168.42 131.525 169.497C130.784 170.555 129.752 171.352 128.431 171.891L132.996 179.58H126.359L122.634 172.968H118.91V179.58H112.993ZM123.115 169.019C124.176 169.019 125.037 168.769 125.698 168.271C126.379 167.752 126.719 167.014 126.719 166.057C126.719 165.079 126.399 164.341 125.758 163.843C125.117 163.344 124.256 163.095 123.175 163.095H118.91V169.019H123.115Z" fill="white"/>
<path d="M144.064 179.58L153.044 158.637H156.889L165.839 179.58H162.595L160.553 174.763H149.38L147.337 179.58H144.064ZM159.712 172.669L154.936 161.808L150.191 172.669H159.712Z" fill="white"/>
<path d="M169.451 179.58V158.637H179.813C182.175 158.637 184.068 159.265 185.489 160.522C186.931 161.758 187.652 163.404 187.652 165.458C187.652 167.513 186.931 169.178 185.489 170.455C184.068 171.712 182.175 172.34 179.813 172.34H172.634V179.58H169.451ZM172.634 169.946H179.482C180.984 169.946 182.185 169.537 183.086 168.72C184.008 167.882 184.468 166.815 184.468 165.518C184.468 164.202 184.018 163.145 183.117 162.347C182.215 161.529 181.014 161.12 179.512 161.12H172.634V169.946Z" fill="white"/>
<path d="M191.8 179.58V158.637H202.162C204.524 158.637 206.416 159.265 207.838 160.522C209.28 161.758 210.001 163.404 210.001 165.458C210.001 167.513 209.28 169.178 207.838 170.455C206.416 171.712 204.524 172.34 202.162 172.34H194.983V179.58H191.8ZM194.983 169.946H201.831C203.333 169.946 204.534 169.537 205.435 168.72C206.356 167.882 206.817 166.815 206.817 165.518C206.817 164.202 206.366 163.145 205.465 162.347C204.564 161.529 203.363 161.12 201.861 161.12H194.983V169.946Z" fill="white"/>
</svg>
