<svg width="44" height="44" viewBox="0 0 44 44" fill="none" xmlns="http://www.w3.org/2000/svg">
<rect width="44" height="44" rx="4" fill="#1877F2"/>
<path d="M15.9111 24.0461H17.6517C17.8053 24.0461 17.9589 24.1997 17.9589 24.3533V35.3094C17.9589 35.8725 18.4197 36.3333 18.9829 36.3333H22.9762C23.5394 36.3333 24.0001 35.8725 24.0001 35.3094V24.3533C24.0001 24.1997 24.1537 24.0461 24.3073 24.0461H27.1743C27.6863 24.0461 28.147 23.6878 28.1982 23.1758L28.8638 19.1825C28.9662 18.5681 28.4542 17.9537 27.8399 17.9537H24.4609C24.2049 17.9537 24.0001 17.749 24.0001 17.493V14.9331C24.0001 14.2676 24.3585 13.9092 25.0241 13.9092H28.0446C28.6078 13.9092 29.0686 13.4484 29.0686 12.8853V8.78956C29.0686 8.22639 28.6078 7.76562 28.0446 7.76562H24.4097C17.7541 7.76562 17.9077 13.1413 17.9077 13.9092V17.6466C17.9077 17.8001 17.7541 17.9537 17.6006 17.9537H15.8599C15.2967 17.9537 14.8359 18.4145 14.8359 18.9777V22.971C14.8871 23.5854 15.3479 24.0461 15.9111 24.0461Z" fill="white"/>
</svg>
