<svg width="44" height="44" viewBox="0 0 44 44" fill="none" xmlns="http://www.w3.org/2000/svg">
<rect width="44" height="44" rx="4" fill="#C729A9"/>
<path d="M30.8201 7.35352H13.2201C11.6646 7.35523 10.1735 7.97374 9.07373 9.07373C7.97373 10.1735 7.35521 11.6646 7.35352 13.2201V30.8201C7.35523 32.3756 7.97374 33.8667 9.07373 34.9665C10.1735 36.0665 11.6646 36.685 13.2201 36.6867H30.8201C32.3756 36.6852 33.8667 36.0665 34.9667 34.9667C36.0665 33.8667 36.6852 32.3756 36.6867 30.8201V13.2201C36.6852 11.6646 36.0665 10.1735 34.9667 9.07348C33.8667 7.97373 32.3756 7.35496 30.8201 7.35352ZM33.7535 30.82C33.7525 31.5976 33.4432 32.3433 32.8934 32.8933C32.3434 33.443 31.5977 33.7524 30.8201 33.7534H13.2201C12.4425 33.7527 11.6968 33.4433 11.1468 32.8933C10.5968 32.3432 10.2874 31.5976 10.2867 30.82V13.22C10.2874 12.4424 10.5968 11.6967 11.1468 11.1467C11.6968 10.5967 12.4425 10.2873 13.2201 10.2866H30.8201C31.5977 10.2875 32.3434 10.5969 32.8934 11.1467C33.4431 11.6967 33.7525 12.4424 33.7535 13.22V30.82Z" fill="white"/>
<path d="M22.019 15.4766C20.2836 15.4766 18.6194 16.1664 17.3924 17.3935C16.1655 18.6207 15.4763 20.2849 15.4766 22.0204C15.4766 23.7558 16.166 25.4201 17.3932 26.647C18.6204 27.8739 20.2846 28.5634 22.0201 28.5631C23.7555 28.5631 25.4197 27.8736 26.6467 26.6467C27.8738 25.4196 28.563 23.7553 28.563 22.0199C28.5611 20.2849 27.8711 18.6217 26.6442 17.395C25.4173 16.1682 23.754 15.4784 22.019 15.4766ZM22.019 25.6299C21.0617 25.6297 20.1436 25.2491 19.4667 24.5722C18.7898 23.895 18.4097 22.9767 18.4097 22.0194C18.41 21.062 18.7903 20.1437 19.4675 19.467C20.1445 18.7901 21.0627 18.4098 22.0201 18.4098C22.9774 18.41 23.8957 18.7904 24.5726 19.4673C25.2495 20.1442 25.6299 21.0626 25.6299 22.0199C25.6289 22.9772 25.2481 23.8948 24.5711 24.5717C23.8941 25.2485 22.9764 25.629 22.019 25.63L22.019 25.6299Z" fill="white"/>
<path d="M30.105 15.0527C29.7979 15.0527 29.5034 14.9307 29.2863 14.7135C29.0692 14.4964 28.9472 14.2019 28.9473 13.8948C28.9473 13.5876 29.0693 13.2931 29.2864 13.076C29.5036 12.8589 29.7981 12.7369 30.1052 12.7369C30.4123 12.7369 30.7068 12.859 30.9239 13.0761C31.1411 13.2932 31.2631 13.5877 31.2631 13.8948C31.2627 14.2019 31.1406 14.4962 30.9235 14.7133C30.7064 14.9303 30.4121 15.0524 30.105 15.0527Z" fill="white"/>
</svg>
