<svg width="30" height="30" viewBox="0 0 27 36" fill="none" xmlns="http://www.w3.org/2000/svg">
<path d="M13.572 0C6.4827 0 0.714844 5.38334 0.714844 12C0.714844 13.9864 1.24693 15.9558 2.25845 17.7026L12.8689 35.6133C13.0102 35.8521 13.2793 36 13.572 36C13.8647 36 14.1339 35.8521 14.2751 35.6133L24.8895 17.6967C25.8971 15.9558 26.4292 13.9863 26.4292 12C26.4292 5.38334 20.6613 0 13.572 0ZM13.572 18C10.0274 18 7.14347 15.3084 7.14347 12C7.14347 8.69168 10.0274 6.00005 13.572 6.00005C17.1167 6.00005 20.0006 8.69168 20.0006 12C20.0006 15.3084 17.1167 18 13.572 18Z" fill="#EC362B"/>
</svg>
