<svg width="30" height="30" viewBox="0 0 36 36" fill="none" xmlns="http://www.w3.org/2000/svg">
<path d="M29.4577 25.2275L29.3137 24.9394C28.9105 23.989 23.9569 22.549 23.5537 22.5203L23.2368 22.549C22.6319 22.6641 21.9696 23.2114 20.6736 24.3346C20.4145 24.565 20.0687 24.6227 19.7519 24.4497C18.0528 23.4993 15.9792 21.5984 14.9423 20.4465C13.8191 19.2082 12.4655 17.1633 11.8319 15.5216C11.7168 15.2048 11.8319 14.8592 12.0624 14.6288C13.5311 13.3039 14.1647 12.6705 14.2224 11.9792C14.2511 11.576 13.3873 6.47843 12.4943 5.98883L12.2351 5.81606C11.6592 5.4416 10.7951 4.89436 9.84471 5.09606C9.61428 5.15372 9.38386 5.24011 9.18236 5.35522C8.54896 5.75881 6.96491 6.85328 6.24491 8.26433C5.813 9.15708 5.61131 17.2499 11.6593 24.0755C17.6497 30.8435 25.0513 31.1315 26.1457 30.9011H26.1744L26.2608 30.8724C27.7585 30.3252 29.0257 28.9141 29.5153 28.3092C30.408 27.2437 29.8034 25.9475 29.4576 25.2275L29.4577 25.2275Z" fill="#EC362B"/>
</svg>
