<svg width="31" height="30" viewBox="0 0 31 30" fill="none" xmlns="http://www.w3.org/2000/svg">
<path d="M15.9575 0C10.4436 0 5.95752 4.18704 5.95752 9.33335C5.95752 10.8783 6.37137 12.4101 7.15811 13.7687L15.4107 27.6992C15.5205 27.8849 15.7299 28 15.9575 28C16.1852 28 16.3945 27.8849 16.5044 27.6992L24.76 13.7641C25.5437 12.4101 25.9576 10.8782 25.9576 9.3333C25.9576 4.18704 21.4714 0 15.9575 0ZM15.9575 14C13.2006 14 10.9576 11.9065 10.9576 9.33335C10.9576 6.7602 13.2006 4.6667 15.9575 4.6667C18.7145 4.6667 20.9575 6.7602 20.9575 9.33335C20.9575 11.9065 18.7145 14 15.9575 14Z" fill="url(#paint0_linear_48_1163)"/>
<defs>
<linearGradient id="paint0_linear_48_1163" x1="15.9575" y1="0" x2="15.9575" y2="28" gradientUnits="userSpaceOnUse">
<stop stop-color="#350202"/>
<stop offset="1" stop-color="#6B0504"/>
</linearGradient>
</defs>
</svg>
