<svg width="213" height="23" viewBox="0 0 213 23" fill="none" xmlns="http://www.w3.org/2000/svg">
<g clip-path="url(#clip0_48_1051)">
<path d="M101.993 10.2366C101.993 10.2366 101.941 10.1557 101.841 10.0082C101.741 9.86063 101.593 9.64173 101.398 9.37048C101.298 9.23723 101.189 9.08495 101.07 8.92315C101.008 8.84225 100.946 8.76135 100.88 8.67093C100.846 8.6281 100.813 8.58527 100.78 8.53768C100.746 8.49485 100.708 8.44727 100.67 8.40444C100.599 8.31402 100.523 8.21884 100.447 8.12367C100.366 8.02849 100.285 7.93331 100.199 7.82862C100.118 7.72868 100.028 7.62875 99.9374 7.52406C99.8898 7.47171 99.847 7.41936 99.7994 7.36702C99.7518 7.31467 99.7042 7.26232 99.6566 7.20997C99.2664 6.7912 98.8238 6.35339 98.3194 5.92985C97.815 5.51108 97.2582 5.10182 96.6395 4.74491C96.4825 4.65925 96.3255 4.57359 96.1684 4.48793C96.0066 4.40703 95.8448 4.33089 95.6783 4.25951C95.3451 4.11674 94.9978 3.99302 94.6408 3.88832C93.9318 3.68369 93.1799 3.56472 92.4328 3.55996C91.6856 3.55045 90.9432 3.6599 90.258 3.88356C89.9153 3.99777 89.5917 4.14054 89.2824 4.31186C89.1301 4.39751 88.9826 4.48793 88.8399 4.58787C88.7685 4.63546 88.7066 4.6878 88.64 4.73539C88.5781 4.78774 88.5115 4.84008 88.4496 4.89719C87.9547 5.33976 87.5692 5.88227 87.3075 6.44381C87.041 7.0101 86.8983 7.59544 86.8554 8.13794C86.8174 8.68045 86.8745 9.18012 87.0077 9.5989C87.0743 9.80829 87.1552 9.99388 87.2457 10.1652C87.2694 10.208 87.2932 10.2461 87.317 10.2889C87.3266 10.308 87.3408 10.327 87.3503 10.346C87.3646 10.3651 87.3741 10.3841 87.3884 10.4031C87.4122 10.4412 87.436 10.4745 87.4598 10.5126C87.4883 10.5459 87.5121 10.5792 87.5359 10.6125C87.5502 10.6268 87.5597 10.6458 87.574 10.6601C87.5883 10.6744 87.5978 10.6887 87.6121 10.7029C87.6359 10.7315 87.6597 10.7601 87.6882 10.7838C87.7358 10.8362 87.7882 10.8838 87.8405 10.9314C87.9404 11.0218 88.0404 11.0932 88.1308 11.155C88.3164 11.2788 88.4639 11.3501 88.5543 11.393C88.7352 11.4834 88.9541 11.5643 89.192 11.6214C89.4299 11.6737 89.6822 11.6975 89.9249 11.6642C90.0486 11.6452 90.1676 11.6166 90.2818 11.5738C90.3103 11.5643 90.3389 11.55 90.3674 11.5357C90.3817 11.531 90.3912 11.5215 90.4055 11.5167C90.415 11.5119 90.4293 11.5072 90.4388 11.5024C90.4626 11.4929 90.4816 11.4739 90.5054 11.4644C90.5292 11.4501 90.5483 11.431 90.5721 11.4168C90.7434 11.2835 90.9004 11.0551 90.9956 10.7934C91.0908 10.5316 91.1241 10.2461 91.1098 9.98912C91.0955 9.73215 91.0289 9.51324 90.9432 9.33241C90.8576 9.15633 90.7434 9.01832 90.653 8.90887C90.6292 8.88508 90.6101 8.85652 90.5911 8.83273C90.5721 8.80894 90.5578 8.7899 90.5435 8.76611C90.5197 8.72328 90.5102 8.68521 90.515 8.6519C90.5245 8.61858 90.5483 8.59003 90.5959 8.56624C90.6196 8.55672 90.6482 8.5472 90.6815 8.53768C90.7148 8.52817 90.7529 8.52817 90.8005 8.52817C90.8243 8.52817 90.8481 8.52817 90.8719 8.52817C90.8957 8.53292 90.9195 8.53292 90.948 8.53768C90.9766 8.54244 91.0004 8.5472 91.0337 8.55196C91.0622 8.56148 91.0908 8.571 91.1193 8.58051C91.2431 8.61858 91.3715 8.68521 91.5095 8.78038C91.776 8.97074 92.0378 9.28482 92.1996 9.6798C92.3661 10.0748 92.447 10.5459 92.4042 11.0456C92.3804 11.2978 92.3281 11.5548 92.2329 11.8117C92.1377 12.0687 91.9949 12.3257 91.8093 12.5541C91.7618 12.6112 91.7094 12.6683 91.6571 12.7207C91.6 12.773 91.5476 12.8254 91.4905 12.8777C91.462 12.9015 91.4286 12.9253 91.4001 12.9491C91.3715 12.9729 91.3382 12.9967 91.3097 13.0157C91.2526 13.0538 91.1955 13.0966 91.1336 13.1347C90.8957 13.2822 90.6339 13.3964 90.3722 13.4726C89.844 13.6296 89.3157 13.6391 88.8589 13.5773C88.3973 13.5106 87.9975 13.3774 87.6787 13.2204C87.5169 13.1442 87.2599 13.0062 86.9554 12.7778C86.8031 12.6636 86.6365 12.5256 86.47 12.3543C86.3843 12.2686 86.2986 12.1782 86.2177 12.0782C86.1749 12.0259 86.1321 11.9783 86.094 11.9212C86.075 11.8926 86.0512 11.8641 86.0322 11.8403C86.0131 11.8117 85.9941 11.7832 85.975 11.7546C85.937 11.6975 85.8989 11.6404 85.8561 11.5833C85.818 11.5215 85.7847 11.4596 85.7466 11.3977C85.7276 11.3644 85.7085 11.3359 85.6895 11.3026C85.6705 11.2692 85.6562 11.2359 85.6372 11.2026C85.6039 11.136 85.5658 11.0694 85.5372 10.998C85.4087 10.7172 85.3041 10.4079 85.2232 10.0795C85.0661 9.42282 85.0376 8.68997 85.147 7.94283C85.2612 7.1957 85.5134 6.43905 85.9179 5.72998C86.3177 5.02092 86.8697 4.35469 87.5692 3.82646C87.6549 3.75983 87.7453 3.69797 87.8357 3.6361C87.9309 3.579 88.0213 3.51713 88.1165 3.46003C88.3021 3.35058 88.4972 3.25064 88.6923 3.16022C89.0873 2.97939 89.5013 2.83662 89.9201 2.73193C90.7624 2.5273 91.6333 2.47495 92.4708 2.55585C94.1554 2.70814 95.7259 3.34582 96.9679 4.21192C97.5913 4.64021 98.1386 5.11134 98.6192 5.59198C99.1046 6.06786 99.5186 6.55326 99.8803 7.01486C99.9231 7.07197 99.9707 7.12907 100.014 7.18618C100.056 7.24329 100.099 7.30039 100.142 7.3575C100.223 7.47171 100.309 7.5764 100.385 7.68586C100.461 7.79531 100.537 7.9 100.608 7.99994C100.68 8.10463 100.746 8.20457 100.813 8.3045C100.846 8.35209 100.88 8.39968 100.908 8.44727C100.937 8.49485 100.97 8.54244 100.999 8.59003C101.056 8.68045 101.113 8.77087 101.17 8.85652C101.275 9.02784 101.37 9.18964 101.46 9.33241C101.632 9.62269 101.76 9.85112 101.846 10.0082C101.946 10.1557 101.993 10.2366 101.993 10.2366Z" fill="#410C0C"/>
<path d="M85.6227 6.8866C85.6227 6.8866 85.6037 6.95323 85.5656 7.0722C85.5561 7.10075 85.5466 7.13882 85.5323 7.17689C85.5228 7.21496 85.5085 7.25779 85.4895 7.30062C85.4561 7.38628 85.4181 7.49097 85.3752 7.60043C85.3277 7.70988 85.2705 7.83361 85.2087 7.96685C85.1754 8.03348 85.1373 8.1001 85.104 8.17148C85.0659 8.24287 85.0278 8.31425 84.985 8.38563C84.9422 8.45701 84.8946 8.53315 84.847 8.61405C84.7994 8.69019 84.7423 8.76633 84.69 8.84723C84.6614 8.8853 84.6329 8.92813 84.6091 8.96621C84.5805 9.00428 84.5472 9.0471 84.5187 9.08518C84.4901 9.12325 84.4568 9.16608 84.4235 9.2089C84.4092 9.22794 84.3902 9.25173 84.3759 9.27077C84.3569 9.2898 84.3426 9.30884 84.3235 9.33263C84.0523 9.66099 83.7239 9.99411 83.3385 10.3034C82.953 10.6128 82.5104 10.9078 82.0108 11.1457C81.5111 11.3884 80.9591 11.574 80.3785 11.6882C79.7979 11.8025 79.1888 11.8405 78.5749 11.8025C77.961 11.7644 77.3471 11.6502 76.757 11.4551C76.1669 11.2647 75.6006 10.9935 75.0867 10.6556C75.0248 10.6128 74.9582 10.5699 74.8963 10.5271C74.8345 10.4795 74.7726 10.4367 74.7107 10.3891C74.5918 10.2939 74.4728 10.1987 74.3586 10.0988C74.1302 9.89893 73.9208 9.68003 73.7304 9.44685C73.5401 9.21842 73.364 8.97572 73.2212 8.71875C73.2022 8.68543 73.1832 8.65688 73.1641 8.62357C73.1451 8.59026 73.1308 8.55695 73.1118 8.52364C73.0785 8.45701 73.0452 8.39515 73.0118 8.32852C72.9547 8.19528 72.8929 8.06203 72.85 7.92403C72.7501 7.65277 72.6882 7.37676 72.6454 7.10551C72.6311 6.9675 72.6121 6.83902 72.6073 6.69625C72.6026 6.62487 72.6073 6.55824 72.6073 6.49162C72.6121 6.425 72.6121 6.35837 72.6169 6.29175C72.6597 5.76352 72.8025 5.30668 72.9785 4.93073C73.0689 4.74038 73.1641 4.57382 73.2593 4.4263C73.3592 4.27877 73.4592 4.15028 73.5543 4.03607C73.7495 3.81241 73.9208 3.66489 74.035 3.58399C74.2586 3.41267 74.5489 3.24135 74.9011 3.12714C75.0772 3.06527 75.2675 3.0272 75.4674 3.00341C75.5673 2.98913 75.6673 2.98438 75.772 2.98438C75.8291 2.98438 75.8814 2.98437 75.9385 2.98913C75.9956 2.98913 76.048 2.99865 76.1051 3.00341C76.5476 3.05576 76.9617 3.22707 77.29 3.46026C77.6231 3.69344 77.8896 3.98848 78.08 4.30257C78.2703 4.61665 78.3845 4.95452 78.4274 5.26861C78.4702 5.58745 78.4321 5.88249 78.3512 6.10616C78.2703 6.33458 78.1514 6.48686 78.0419 6.56776C78.0181 6.5868 77.9896 6.60583 77.9658 6.62011C77.942 6.63439 77.9182 6.63914 77.8944 6.64866C77.8516 6.65818 77.8135 6.65342 77.7849 6.63914C77.6612 6.56776 77.6612 6.31555 77.5613 6.03953C77.5137 5.90153 77.4423 5.74925 77.3424 5.60648C77.2424 5.46372 77.1092 5.31619 76.9521 5.19722C76.7999 5.07349 76.619 4.97832 76.4477 4.92121C76.2764 4.86411 76.1146 4.85459 75.9861 4.86887C75.9718 4.87362 75.9528 4.87362 75.9385 4.87838C75.9242 4.88314 75.91 4.8879 75.8957 4.8879C75.8624 4.89742 75.8243 4.90694 75.791 4.91645C75.7196 4.94025 75.6577 4.96404 75.5959 4.99735C75.4721 5.05922 75.3579 5.1306 75.2628 5.20674C75.2152 5.24481 75.1343 5.30192 75.0343 5.40185C74.9867 5.44944 74.9296 5.51131 74.8725 5.57793C74.8154 5.64931 74.7583 5.73021 74.706 5.82063C74.5965 6.00622 74.4966 6.24416 74.4442 6.5059C74.4395 6.53921 74.4347 6.57252 74.43 6.60583C74.4252 6.63914 74.4205 6.67246 74.4205 6.71053C74.4157 6.77715 74.4204 6.85805 74.4157 6.93895C74.4252 7.09599 74.4395 7.26731 74.4871 7.43863C74.5013 7.52428 74.5347 7.6147 74.5632 7.70512C74.5823 7.74795 74.5965 7.79554 74.6156 7.83837C74.6251 7.86216 74.6298 7.88595 74.6394 7.90499L74.6679 7.97161C74.744 8.15245 74.8487 8.33804 74.9677 8.51888C75.0867 8.69971 75.2247 8.88055 75.3817 9.05186C75.4579 9.13752 75.5435 9.22318 75.6292 9.30408C75.672 9.34215 75.7196 9.38498 75.7624 9.42305C75.8053 9.46588 75.8529 9.49919 75.9004 9.54202C76.2764 9.85134 76.7142 10.1274 77.1853 10.3367C77.6564 10.5509 78.1656 10.7079 78.6891 10.7983C79.2126 10.8888 79.7456 10.9173 80.2643 10.8745C80.783 10.8317 81.2922 10.7222 81.7633 10.5604C82.7103 10.232 83.5098 9.68479 84.0904 9.12325C84.1094 9.10421 84.1284 9.08993 84.1475 9.0709C84.1665 9.05186 84.1808 9.03283 84.1998 9.01855C84.2331 8.98048 84.2664 8.94717 84.3045 8.91386C84.3378 8.88055 84.3711 8.84248 84.4044 8.80916C84.4378 8.77109 84.4663 8.73778 84.4949 8.70447C84.5567 8.63309 84.6138 8.56646 84.6709 8.49984C84.7233 8.42846 84.7756 8.36184 84.828 8.29521C84.8803 8.22859 84.9232 8.16197 84.966 8.1001C85.0088 8.03348 85.0516 7.97161 85.0945 7.91451C85.1706 7.79078 85.2372 7.67657 85.2991 7.57663C85.3562 7.47194 85.4038 7.37676 85.4466 7.2911C85.4704 7.24827 85.4847 7.2102 85.5037 7.17689C85.518 7.13882 85.5323 7.11027 85.5466 7.07696C85.5941 6.94847 85.6227 6.8866 85.6227 6.8866Z" fill="#410C0C"/>
<path d="M73.6781 6.5012C73.6781 6.5012 73.4925 6.41078 73.1356 6.24422C72.9595 6.15857 72.7358 6.06339 72.4789 5.95394C72.4122 5.92538 72.3456 5.89683 72.2742 5.86828C72.2029 5.83973 72.1315 5.81117 72.0553 5.78262C71.903 5.72551 71.7412 5.65889 71.5747 5.59227C70.8894 5.34005 70.0471 5.05928 69.0525 4.81658C68.0627 4.56912 66.9301 4.35973 65.6785 4.21697C64.427 4.07421 63.0612 4.01234 61.6097 4.03613C60.1631 4.06469 58.6307 4.18366 57.0555 4.3978C56.2656 4.5025 55.4661 4.63099 54.6619 4.78327C53.8529 4.93555 53.0391 5.10211 52.2206 5.29722C51.4021 5.48757 50.5788 5.69696 49.7508 5.92538C49.3368 6.0396 48.9227 6.15381 48.5135 6.2823C48.0995 6.40602 47.6854 6.52499 47.2714 6.65348C43.9593 7.66711 40.6472 8.84254 37.435 9.86568C37.2351 9.93231 37.0352 9.99417 36.8353 10.056C36.6355 10.1179 36.4356 10.1798 36.2357 10.2416C36.0359 10.3035 35.836 10.3654 35.6409 10.4272C35.5409 10.4558 35.4458 10.4891 35.3458 10.5176C35.2459 10.5462 35.146 10.5747 35.0508 10.6033C34.6558 10.7175 34.2656 10.8317 33.8754 10.9459C33.4851 11.0554 33.0997 11.1601 32.7142 11.2648C32.5239 11.3171 32.3335 11.3695 32.1432 11.4171C31.9528 11.4646 31.7624 11.5122 31.5721 11.5598C31.3817 11.6074 31.1961 11.655 31.0106 11.7026C30.9154 11.7264 30.825 11.7502 30.7298 11.774C30.6394 11.7978 30.5442 11.8168 30.449 11.8358C30.0778 11.9167 29.7114 12.0024 29.3497 12.0785C29.2593 12.0976 29.1689 12.1214 29.0785 12.1356C28.9881 12.1547 28.8976 12.169 28.8072 12.188C28.6264 12.2213 28.4503 12.2546 28.2695 12.2927C28.0934 12.326 27.9173 12.3593 27.7412 12.3926C27.6556 12.4069 27.5652 12.4259 27.4795 12.4402C27.3939 12.4545 27.3034 12.4688 27.2178 12.483C26.8704 12.5354 26.5325 12.5925 26.1994 12.6448C26.1137 12.6591 26.0328 12.6686 25.9519 12.6829C25.871 12.6924 25.7854 12.7019 25.7045 12.7115C25.5379 12.7305 25.3761 12.7495 25.2143 12.7686C24.8907 12.8066 24.5766 12.8447 24.2673 12.8828C23.0253 13.0065 21.8641 13.0493 20.8267 12.9684C19.794 12.8923 18.8946 12.6924 18.1951 12.4545C18.1094 12.4259 18.0237 12.3926 17.9381 12.3641C17.8572 12.3307 17.7763 12.3022 17.7001 12.2736C17.5479 12.207 17.4099 12.1499 17.2861 12.088C17.1624 12.0262 17.0482 11.9691 16.9483 11.9167C16.8483 11.8596 16.7627 11.8073 16.6865 11.7645C16.6484 11.7407 16.6104 11.7216 16.5723 11.6978C16.5342 11.674 16.4962 11.6502 16.4581 11.6217C16.382 11.5693 16.3058 11.5218 16.2249 11.4694C16.1488 11.4123 16.0726 11.3552 15.9917 11.2981C15.9537 11.2695 15.9108 11.241 15.8728 11.2077C15.8347 11.1744 15.7966 11.141 15.7586 11.1125C15.4445 10.8555 15.1351 10.551 14.8496 10.1988C14.2643 9.50401 13.7836 8.59032 13.5933 7.54814C13.4981 7.01039 13.5029 6.46313 13.5933 5.9349C13.6837 5.40667 13.855 4.89272 14.1025 4.41684C14.3499 3.94572 14.6783 3.50791 15.0733 3.14624C15.4683 2.78457 15.9346 2.49428 16.4343 2.32772L16.5295 2.29441C16.5628 2.28489 16.5913 2.27537 16.6247 2.26586C16.6865 2.24682 16.7484 2.22779 16.815 2.21827C16.8816 2.20399 16.9387 2.18971 17.0054 2.1802C17.072 2.17068 17.1386 2.16116 17.2052 2.15164C17.4717 2.12785 17.7287 2.13737 17.9762 2.17544C18.0999 2.19447 18.2189 2.22303 18.3378 2.25158C18.3949 2.27061 18.452 2.28489 18.5091 2.30393C18.5663 2.32296 18.6186 2.342 18.6757 2.36579C18.8899 2.45145 19.0945 2.55138 19.2801 2.6656C19.6465 2.89402 19.9511 3.17479 20.189 3.46508C20.4269 3.75536 20.603 4.06945 20.7125 4.36925C20.8267 4.66906 20.879 4.95934 20.8838 5.21156C20.8886 5.46378 20.8505 5.68268 20.7981 5.84924C20.7839 5.89207 20.7696 5.93014 20.7553 5.96345C20.741 6.00153 20.722 6.03008 20.7077 6.06339C20.6934 6.09194 20.6792 6.1205 20.6649 6.14429C20.6506 6.16808 20.6316 6.18712 20.6173 6.20615C20.5602 6.27754 20.5126 6.31085 20.4793 6.29657C20.4079 6.27278 20.4174 6.08718 20.3889 5.80166C20.3698 5.65889 20.346 5.48757 20.2842 5.30198C20.2223 5.11639 20.1319 4.91652 19.9987 4.71189C19.8654 4.51202 19.6941 4.30739 19.4799 4.12655C19.2706 3.94096 19.0136 3.77916 18.7328 3.66019C18.5948 3.59832 18.4473 3.55074 18.295 3.51742C18.2569 3.50791 18.2189 3.49839 18.1808 3.49363C18.1427 3.48887 18.1046 3.47935 18.0666 3.47459C17.9904 3.46984 17.9143 3.46032 17.8382 3.46032C17.6859 3.46032 17.5383 3.46984 17.3956 3.50315C17.3623 3.51267 17.3242 3.52218 17.2909 3.5317C17.2528 3.54122 17.2147 3.55549 17.1767 3.56977C17.1386 3.57929 17.1005 3.59832 17.0672 3.6126C17.0482 3.62212 17.0292 3.62688 17.0101 3.63639L16.9578 3.66495C16.6675 3.80295 16.401 4.00758 16.1726 4.26456C15.9441 4.52153 15.7586 4.8261 15.6158 5.15446C15.3398 5.81117 15.2684 6.56307 15.4254 7.19123L15.4397 7.24833C15.4445 7.26737 15.454 7.29116 15.4587 7.3102C15.473 7.35303 15.4825 7.3911 15.4968 7.43393C15.5111 7.472 15.5206 7.51483 15.5349 7.5529C15.5492 7.59097 15.5682 7.6338 15.5825 7.67187C15.5968 7.70994 15.611 7.74801 15.6301 7.79084C15.6443 7.82891 15.6681 7.86698 15.6824 7.90505C15.7205 7.98119 15.749 8.05733 15.7966 8.12872C15.8395 8.2001 15.8775 8.27148 15.9204 8.34286C15.9679 8.40949 16.0108 8.48087 16.0584 8.54749C16.1583 8.67598 16.2535 8.80923 16.3629 8.92344C16.5771 9.16138 16.8007 9.37552 17.0387 9.56112C17.0672 9.58491 17.0958 9.60871 17.1243 9.6325C17.1529 9.65629 17.1814 9.67533 17.2147 9.69912C17.2719 9.74195 17.329 9.78478 17.3861 9.82285C17.4432 9.86092 17.505 9.89899 17.5621 9.93707C17.5907 9.9561 17.6192 9.97514 17.6478 9.99417C17.6764 10.0132 17.7049 10.0275 17.7335 10.0465C17.7906 10.0798 17.8572 10.1179 17.9286 10.1607C18.0047 10.1988 18.0904 10.2464 18.1808 10.294C18.276 10.3416 18.3807 10.3844 18.4901 10.4415C18.5472 10.4653 18.6091 10.4891 18.6662 10.5129C18.7281 10.5367 18.7899 10.5652 18.8613 10.589C19.4038 10.7889 20.1224 10.9745 21.0028 11.0649C21.8879 11.1601 22.9348 11.1601 24.115 11.0792C24.4101 11.0554 24.7146 11.0268 25.024 10.9983C25.181 10.984 25.3333 10.9697 25.4951 10.9555C25.576 10.9459 25.6521 10.9412 25.733 10.9317C25.8139 10.9221 25.8948 10.9126 25.971 10.9031C26.2946 10.865 26.6229 10.8222 26.956 10.7794C27.0417 10.7699 27.1226 10.7603 27.2083 10.7461C27.2939 10.7365 27.3748 10.7223 27.4605 10.708C27.6318 10.6794 27.8031 10.6556 27.9744 10.6271C28.1457 10.5985 28.3218 10.5747 28.4979 10.5462C28.5836 10.5319 28.674 10.5176 28.7596 10.5034C28.85 10.4891 28.9357 10.4701 29.0261 10.4558C29.3783 10.3892 29.7399 10.3225 30.1016 10.2559C30.192 10.2369 30.2825 10.2226 30.3776 10.2036C30.468 10.1845 30.5585 10.1655 30.6536 10.1465C30.8392 10.1084 31.0201 10.0656 31.2104 10.0275C31.396 9.98941 31.5816 9.94658 31.772 9.90851C31.9623 9.87044 32.1479 9.82285 32.3383 9.77527C33.8563 9.42787 35.4315 9.00434 37.04 8.55701C40.2569 7.65759 43.6214 6.60114 46.9954 5.70172C47.4189 5.58751 47.8425 5.48281 48.2613 5.37336C48.68 5.26391 49.1036 5.16397 49.5271 5.05928C50.3694 4.85941 51.2165 4.67857 52.054 4.51678C52.8916 4.35022 53.7244 4.21221 54.5476 4.08848C55.3709 3.96475 56.1894 3.86482 56.9889 3.78868C58.5926 3.63164 60.1488 3.56977 61.6193 3.59357C63.085 3.62688 64.4698 3.73633 65.7261 3.93144C66.9872 4.12179 68.1198 4.37877 69.1096 4.6643C70.0995 4.94983 70.937 5.26391 71.6128 5.53992C71.7793 5.6113 71.9411 5.68268 72.0886 5.74931C72.1648 5.78262 72.2362 5.81117 72.3076 5.84448C72.3742 5.8778 72.4408 5.91111 72.5074 5.93966C72.7644 6.06339 72.9833 6.16332 73.1546 6.2585C73.4925 6.40127 73.6781 6.5012 73.6781 6.5012Z" fill="#410C0C"/>
<path d="M14.569 8.76562C14.569 8.76562 14.4263 8.82749 14.1693 8.93218C14.0408 8.98453 13.8885 9.05115 13.7077 9.12254C13.5269 9.18916 13.3222 9.2653 13.0986 9.35096C13.0415 9.36999 12.9844 9.39379 12.9272 9.41282C12.8701 9.43186 12.8083 9.45089 12.7464 9.47469C12.6227 9.51752 12.4942 9.56035 12.3657 9.60318C12.104 9.69359 11.8232 9.77449 11.5282 9.86015C10.9428 10.0315 10.3051 10.1885 9.65318 10.3313C8.34927 10.612 6.98349 10.7738 5.8842 10.8405C5.60819 10.8547 5.34646 10.8643 5.11328 10.8738C4.87533 10.8738 4.66119 10.8785 4.47559 10.8785C4.38042 10.8785 4.29476 10.8785 4.21386 10.8785C4.13296 10.8785 4.06158 10.8738 3.99971 10.869C3.87122 10.8643 3.77605 10.8547 3.71418 10.85C3.59521 10.8357 3.45721 10.8167 3.30968 10.7881C3.16216 10.7548 3.00512 10.712 2.84332 10.6644C2.76242 10.6406 2.68152 10.612 2.59586 10.5883C2.51496 10.5597 2.4293 10.5311 2.3484 10.4978C2.1866 10.4312 2.0248 10.3598 1.87252 10.2884C1.56796 10.1457 1.30146 9.9696 1.11587 9.81256C0.935036 9.65076 0.835101 9.49372 0.868413 9.35572C0.901724 9.21771 1.05401 9.11778 1.28243 9.03688C1.51085 8.96074 1.8059 8.91791 2.12474 8.87508C2.28654 8.85604 2.44834 8.84177 2.6149 8.83701C2.6958 8.83225 2.78146 8.82749 2.86236 8.82273C2.94326 8.81797 3.02416 8.81321 3.10506 8.81321C3.2621 8.80845 3.41438 8.81321 3.55714 8.81797C3.69515 8.81797 3.82364 8.82749 3.93309 8.83701C3.9902 8.84177 4.07585 8.85604 4.19482 8.87508C4.25193 8.8846 4.31855 8.89887 4.38994 8.90839C4.46132 8.91791 4.54222 8.93218 4.62788 8.94646C4.79919 8.97501 4.99431 9.00357 5.21321 9.04164C5.43212 9.07019 5.67006 9.1035 5.92703 9.13681C6.95018 9.26054 8.25409 9.35572 9.53421 9.33192C10.1767 9.31765 10.8143 9.2891 11.4044 9.23675C11.6995 9.2082 11.9898 9.18916 12.2563 9.15109C12.3895 9.13205 12.5227 9.11778 12.6512 9.1035C12.7131 9.09398 12.775 9.08922 12.8368 9.07971C12.8987 9.07019 12.9558 9.06067 13.0177 9.05115C13.2508 9.01308 13.465 8.97977 13.6553 8.95122C13.8457 8.91791 14.0075 8.8846 14.1407 8.8608C14.412 8.79418 14.569 8.76562 14.569 8.76562Z" fill="#410C0C"/>
<path d="M105.976 0.5C105.976 0.5 105.934 0.590417 105.848 0.756976C105.805 0.842635 105.753 0.94257 105.696 1.0663C105.634 1.18527 105.553 1.32327 105.472 1.47556C105.129 2.08469 104.592 2.94127 103.802 3.874C103.012 4.80197 101.96 5.80608 100.67 6.6817C100.023 7.11951 99.3188 7.52401 98.5621 7.87616C97.8055 8.23783 97.0108 8.51384 96.2541 8.81365C95.8734 8.96593 95.5022 9.12297 95.1501 9.29429C95.0644 9.33712 94.974 9.37995 94.8883 9.42754L94.6361 9.5703L94.3934 9.71782C94.3125 9.77017 94.2364 9.82252 94.1602 9.87486C94.008 9.98432 93.8652 10.0985 93.7319 10.2175C93.6986 10.2461 93.6653 10.2746 93.632 10.3079L93.5368 10.4031L93.4417 10.4983C93.4131 10.5316 93.3845 10.5649 93.356 10.5934C93.1323 10.8552 92.9515 11.1502 92.8135 11.4596C92.5375 12.0782 92.4375 12.7587 92.4851 13.3821C92.5327 14.0055 92.7326 14.5766 93.0229 15.0144C93.0419 15.0429 93.061 15.0715 93.08 15.0953C93.099 15.1238 93.1181 15.1476 93.1371 15.1762C93.1799 15.2238 93.218 15.2761 93.2561 15.3237C93.2989 15.3713 93.337 15.4141 93.3798 15.457C93.4036 15.476 93.4226 15.4998 93.4464 15.5188C93.4702 15.5379 93.4892 15.5569 93.513 15.5807C93.6939 15.7377 93.889 15.871 94.0889 15.9757C94.4886 16.1851 94.8931 16.2945 95.25 16.3421C95.2928 16.3469 95.3357 16.3564 95.3833 16.3564C95.4261 16.3611 95.4689 16.3611 95.5117 16.3659C95.5926 16.3659 95.6735 16.3706 95.7497 16.3706C95.8258 16.3706 95.8972 16.3659 95.9638 16.3611C96.0305 16.3516 96.0923 16.3516 96.1542 16.3421C96.3921 16.3088 96.5587 16.2612 96.6634 16.2326C96.8728 16.1755 97.1012 16.0851 97.3296 15.9614C97.4438 15.8948 97.558 15.8234 97.6675 15.7377C97.7769 15.6521 97.8816 15.5521 97.9863 15.4427C98.1862 15.219 98.3718 14.943 98.505 14.6384C98.643 14.3339 98.7382 13.996 98.7858 13.6629C98.8096 13.4963 98.8239 13.3298 98.8239 13.168C98.8239 13.0062 98.8191 12.8491 98.8001 12.6968C98.7715 12.397 98.7001 12.1258 98.6288 11.8926C98.486 11.431 98.3147 11.1312 98.4146 11.0217C98.4622 10.9694 98.5669 10.9742 98.7287 11.0455C98.8857 11.1169 99.0904 11.2549 99.2998 11.4786C99.5091 11.7022 99.7233 12.0021 99.8898 12.378C99.9755 12.5636 100.042 12.7682 100.099 12.9871C100.156 13.206 100.194 13.4345 100.218 13.6724C100.261 14.1483 100.228 14.6575 100.104 15.1571C99.985 15.6568 99.7614 16.1517 99.4663 16.5848C99.314 16.7989 99.1427 16.9988 98.9619 17.1796C98.7763 17.3605 98.5812 17.5128 98.3813 17.646C97.9816 17.9077 97.5771 18.0791 97.2202 18.179C97.0441 18.2313 96.749 18.298 96.3588 18.3313C96.2636 18.3408 96.1589 18.3456 96.0495 18.3503C95.94 18.3503 95.8258 18.3551 95.7068 18.3456C95.5879 18.3408 95.4641 18.3313 95.3309 18.317C95.2643 18.3075 95.2024 18.298 95.1358 18.2884C95.0692 18.2789 95.0025 18.2647 94.9312 18.2504C94.3839 18.1457 93.7653 17.9363 93.1609 17.5604C92.8611 17.3748 92.5613 17.1416 92.2853 16.8608C92.2519 16.8275 92.2186 16.7894 92.1806 16.7561C92.1473 16.718 92.1139 16.68 92.0806 16.6419C92.014 16.5658 91.9521 16.4849 91.8903 16.404C91.8284 16.3231 91.7713 16.2374 91.7142 16.1517C91.6856 16.1089 91.6619 16.0661 91.6333 16.0185C91.6048 15.9757 91.581 15.9281 91.5572 15.8852C90.7386 14.4338 90.6958 12.4684 91.5714 10.8361C91.7903 10.4316 92.0664 10.0462 92.4042 9.70831C92.4471 9.66548 92.4899 9.62265 92.5327 9.58458L92.6612 9.47037L92.7945 9.35615C92.8373 9.31808 92.8849 9.28477 92.9325 9.25146C93.1133 9.1087 93.3036 8.98021 93.4988 8.86124C93.5987 8.80413 93.6939 8.74703 93.7938 8.68992C93.8937 8.63757 93.9937 8.58523 94.0936 8.53764L94.3982 8.39963C94.4981 8.3568 94.6028 8.31397 94.7027 8.27114C95.1072 8.10934 95.5165 7.97134 95.921 7.84761C96.7252 7.59539 97.5152 7.39076 98.2433 7.10524C98.9809 6.82922 99.6805 6.49611 100.332 6.12492C101.632 5.38254 102.726 4.49265 103.573 3.64558C104.415 2.79375 105.015 1.99427 105.405 1.41369C105.5 1.26617 105.591 1.14244 105.662 1.02347C105.734 0.909258 105.791 0.809323 105.838 0.728423C105.929 0.585659 105.976 0.5 105.976 0.5Z" fill="#410C0C"/>
<path d="M70.723 7.65746C70.723 7.65746 70.4137 7.60988 69.8712 7.52422C69.7332 7.50518 69.5857 7.48615 69.4191 7.46235C69.2526 7.43856 69.0765 7.41476 68.8861 7.39573C68.6958 7.37669 68.4911 7.3529 68.277 7.32911C68.0629 7.31007 67.8344 7.29103 67.6012 7.272C66.6542 7.20062 65.5454 7.15303 64.351 7.17206C63.1565 7.18634 61.8812 7.27676 60.601 7.4338C60.4392 7.45283 60.2822 7.47187 60.1204 7.49566L59.6397 7.56705L59.4018 7.60036L59.1639 7.64319C59.0068 7.67174 58.845 7.69553 58.688 7.72409C58.5309 7.75264 58.3739 7.78595 58.2169 7.8145C58.0598 7.84782 57.9028 7.87637 57.7505 7.90492C57.4412 7.97155 57.1414 8.03817 56.8511 8.11431C56.2705 8.26659 55.728 8.45219 55.2569 8.68537C55.0189 8.79958 54.8 8.92807 54.6002 9.06131C54.4051 9.19456 54.229 9.34208 54.0719 9.49437C53.9149 9.64665 53.7769 9.80369 53.6579 9.96549C53.5437 10.1273 53.4485 10.2843 53.3676 10.4414C53.2963 10.5984 53.2344 10.7459 53.1963 10.8887C53.182 10.922 53.182 10.9601 53.1725 10.9934C53.1678 11.0267 53.1535 11.06 53.1535 11.0933C53.144 11.16 53.1297 11.2218 53.1297 11.2837C53.1249 11.3122 53.1249 11.3455 53.1202 11.3741C53.1202 11.4027 53.1202 11.4264 53.1202 11.455C53.1202 11.4788 53.1202 11.5073 53.1249 11.5311C53.1249 11.5549 53.1297 11.5787 53.1297 11.6025C53.1392 11.6977 53.1582 11.7834 53.1773 11.8643C53.2154 12.0165 53.2629 12.1307 53.2915 12.1974C53.3486 12.3354 53.4247 12.4877 53.5294 12.6399C53.6341 12.7875 53.7579 12.9302 53.9054 13.0397C53.9768 13.092 54.0577 13.1396 54.1433 13.1777C54.2337 13.2158 54.2956 13.2396 54.3813 13.2586C54.5478 13.2871 54.762 13.2681 54.9666 13.192C55.1712 13.1206 55.3663 13.0016 55.5186 12.8684C55.6757 12.7351 55.7899 12.5876 55.8803 12.4448C55.9659 12.3021 56.0183 12.1641 56.0659 12.0546C56.0754 12.0261 56.0897 12.0023 56.0992 11.9785C56.1087 11.9547 56.123 11.9356 56.1325 11.9166C56.1563 11.8785 56.1849 11.8547 56.2182 11.8405C56.2515 11.8309 56.2895 11.8357 56.3324 11.8595C56.3514 11.869 56.3752 11.888 56.399 11.9071C56.4228 11.9261 56.4418 11.9547 56.4656 11.9832C56.556 12.1022 56.6417 12.3068 56.656 12.5828C56.6702 12.8541 56.6131 13.1872 56.4561 13.5108C56.2991 13.8344 56.0564 14.158 55.7185 14.4197C55.5519 14.553 55.3568 14.6672 55.1474 14.7576C54.9333 14.848 54.7001 14.9147 54.4479 14.9432C54.386 14.948 54.3242 14.9575 54.2575 14.9575C54.1957 14.9575 54.129 14.9622 54.0624 14.9575C53.9292 14.948 53.8102 14.9384 53.6912 14.9147C53.4533 14.8718 53.2201 14.7909 53.0107 14.691C52.5824 14.4911 52.235 14.2008 51.9733 13.8963C51.7116 13.5917 51.5307 13.2729 51.4118 12.9873C51.3547 12.8446 51.2642 12.6066 51.2024 12.2735C51.1738 12.107 51.15 11.9166 51.1453 11.7072C51.1453 11.6549 51.1453 11.5978 51.1453 11.5454C51.1453 11.4883 51.15 11.4312 51.1548 11.3741C51.1595 11.317 51.1643 11.2551 51.1738 11.198C51.1833 11.1409 51.1929 11.0838 51.2024 11.0219C51.2166 10.903 51.25 10.784 51.2785 10.6603C51.2928 10.5984 51.3166 10.5365 51.3356 10.4747C51.3547 10.4128 51.3737 10.351 51.3975 10.2891C51.4879 10.0416 51.6116 9.79417 51.7592 9.54671C51.9067 9.30401 52.0828 9.06607 52.2826 8.84241C52.4825 8.61874 52.7062 8.4046 52.9536 8.20949C53.2011 8.01437 53.4676 7.82878 53.7531 7.67174C54.0386 7.5147 54.3337 7.38145 54.643 7.26248C55.2616 7.0293 55.9088 6.87702 56.5608 6.76756C56.8892 6.71522 57.2128 6.67239 57.5411 6.63432C57.7029 6.61528 57.8695 6.60101 58.0313 6.58673C58.1978 6.57245 58.3596 6.55342 58.5262 6.53914C58.6927 6.52487 58.8593 6.51535 59.0211 6.50107L59.2686 6.48204L59.516 6.46776L60.0157 6.44397C60.1823 6.43445 60.3488 6.43445 60.5154 6.42969C61.8431 6.39638 63.1518 6.43445 64.3653 6.53914C65.5788 6.63908 66.6923 6.80088 67.6298 6.96743C67.863 7.01026 68.0914 7.05309 68.3056 7.09592C68.5197 7.13875 68.7196 7.18158 68.9099 7.22441C69.1003 7.26248 69.2763 7.30531 69.4381 7.34338C69.5999 7.38145 69.7475 7.41952 69.8807 7.44808C70.4185 7.57656 70.723 7.65746 70.723 7.65746Z" fill="#410C0C"/>
<path d="M104.477 8.66113C104.477 8.66113 104.496 8.72776 104.539 8.84673C104.558 8.90859 104.587 8.98473 104.611 9.07039C104.634 9.16081 104.663 9.2655 104.696 9.37971C104.725 9.49868 104.753 9.62717 104.787 9.76994C104.801 9.84132 104.815 9.91746 104.829 9.9936C104.844 10.0697 104.858 10.1506 104.872 10.2363C104.887 10.322 104.896 10.4076 104.91 10.4933C104.92 10.5837 104.929 10.6741 104.944 10.7693C104.948 10.8169 104.953 10.8645 104.958 10.9121C104.963 10.9596 104.967 11.012 104.967 11.0596C104.972 11.1595 104.986 11.2642 104.986 11.3689C105.029 12.2064 104.958 13.2058 104.715 14.2575C104.592 14.781 104.43 15.3235 104.216 15.8565C104.001 16.3894 103.74 16.9224 103.435 17.4364C103.131 17.9503 102.774 18.4405 102.383 18.8973C101.988 19.3542 101.555 19.773 101.099 20.1442C100.18 20.8865 99.1712 21.4243 98.2337 21.7812C97.7626 21.962 97.3105 22.0953 96.8918 22.2C96.473 22.2999 96.0875 22.3713 95.7449 22.4141C95.0644 22.5045 94.5742 22.5045 94.3553 22.5045C93.9175 22.495 93.3417 22.4236 92.7421 22.2666C92.1425 22.1143 91.5238 21.8764 90.9956 21.5956C90.4626 21.3148 90.0248 20.9865 89.744 20.7009C89.6726 20.6296 89.6108 20.5629 89.5632 20.4963C89.5156 20.4297 89.4728 20.3726 89.4442 20.3155C89.3871 20.206 89.3728 20.1204 89.4109 20.0585C89.449 19.9966 89.5299 19.9681 89.6536 19.9633C89.7155 19.9586 89.7821 19.9633 89.8582 19.9681C89.9344 19.9776 90.02 19.9824 90.1104 19.9966C90.4769 20.0537 90.9528 20.1537 91.4667 20.2346C91.9807 20.3202 92.5374 20.3821 93.0514 20.4202C93.5653 20.4582 94.046 20.463 94.4077 20.4725C94.5885 20.4725 94.993 20.5058 95.564 20.4773C95.8496 20.4678 96.1779 20.4344 96.5396 20.3916C96.9013 20.3393 97.2915 20.2631 97.7007 20.1537C98.524 19.9348 99.4282 19.5731 100.28 19.0211C100.708 18.7451 101.122 18.4262 101.513 18.0646C101.903 17.7029 102.264 17.2984 102.593 16.8701C102.921 16.4418 103.216 15.9849 103.468 15.5138C103.721 15.0427 103.93 14.5621 104.101 14.0814C104.439 13.1249 104.615 12.1779 104.672 11.3689C104.73 10.5551 104.677 9.86987 104.615 9.39875C104.596 9.27978 104.582 9.17508 104.568 9.08467C104.553 8.99425 104.534 8.91811 104.525 8.85149C104.492 8.72776 104.477 8.66113 104.477 8.66113Z" fill="#410C0C"/>
<path d="M78.2708 7.98597C78.2708 7.98597 78.3754 7.95266 78.5515 7.89555C78.5944 7.87652 78.6419 7.85748 78.6943 7.83845C78.7466 7.81465 78.8037 7.79562 78.8608 7.76706C78.918 7.73851 78.9798 7.70996 79.0464 7.67665C79.0798 7.66237 79.1131 7.64334 79.1464 7.6243C79.1797 7.60526 79.213 7.58623 79.2463 7.56719C79.5176 7.40539 79.8126 7.18649 80.0791 6.90572C80.3504 6.62971 80.5883 6.29659 80.7691 5.94444C80.7786 5.92064 80.7929 5.90161 80.8024 5.87782L80.831 5.81119L80.8929 5.67795C80.9309 5.58753 80.9595 5.49235 80.9928 5.40669C81.0166 5.31152 81.0451 5.2211 81.0642 5.13068C81.0737 5.08309 81.0832 5.04026 81.0927 4.99268C81.1022 4.94985 81.1118 4.90226 81.1165 4.85943C81.1641 4.50252 81.1498 4.16464 81.107 3.87435C81.1023 3.83628 81.0927 3.80297 81.088 3.7649C81.0832 3.73159 81.0785 3.69352 81.0689 3.66021C81.0547 3.59358 81.0404 3.53172 81.0213 3.46986C80.9833 3.35088 80.9547 3.24143 80.9167 3.15101C80.8976 3.10343 80.8833 3.0606 80.8691 3.02253C80.8548 2.98446 80.8358 2.95114 80.8262 2.91783C80.8024 2.85597 80.7882 2.80838 80.7739 2.77983C80.7549 2.72272 80.7358 2.6561 80.7215 2.5752C80.7025 2.49906 80.6882 2.4134 80.674 2.32298C80.6644 2.28015 80.6549 2.23256 80.6502 2.18498C80.6406 2.13739 80.6406 2.0898 80.6264 2.04221C80.6073 1.94703 80.5978 1.84234 80.5835 1.74716C80.574 1.69958 80.5693 1.64723 80.5645 1.59488C80.5597 1.54254 80.5502 1.49971 80.5455 1.44736C80.536 1.35218 80.5312 1.25225 80.5312 1.16659C80.5312 0.990513 80.5597 0.833472 80.6597 0.728778C80.7549 0.628843 80.9119 0.595531 81.1118 0.624084C81.2117 0.63836 81.3164 0.676431 81.4258 0.724019C81.4782 0.747813 81.5401 0.776366 81.5924 0.809678C81.6495 0.842989 81.7019 0.876301 81.759 0.91913C81.8732 0.995271 81.9731 1.09045 82.0778 1.18562C82.1302 1.23321 82.1777 1.28556 82.2206 1.34266C82.2682 1.39501 82.311 1.45212 82.3538 1.50446C82.4347 1.61392 82.5061 1.72813 82.5632 1.83758C82.6156 1.94703 82.6631 2.05173 82.6964 2.14215C82.7155 2.18973 82.7298 2.26587 82.7536 2.36581C82.7631 2.41816 82.7774 2.47526 82.7869 2.53713C82.7964 2.59899 82.8059 2.67037 82.8154 2.74652C82.8392 2.89404 82.8392 3.07011 82.8487 3.26047C82.844 3.35564 82.844 3.45558 82.8392 3.55551C82.8392 3.60786 82.8345 3.66021 82.8297 3.71255C82.8249 3.7649 82.8202 3.81725 82.8154 3.87435C82.7631 4.31217 82.6489 4.79281 82.4395 5.25917C82.4157 5.31628 82.3871 5.37338 82.3586 5.43049C82.33 5.48759 82.3015 5.5447 82.2682 5.6018C82.2063 5.71602 82.1349 5.82071 82.0683 5.93016C81.9921 6.03486 81.9208 6.13955 81.8399 6.23948L81.7161 6.38701L81.6543 6.45839C81.6352 6.48218 81.6114 6.50598 81.5876 6.52501C81.2403 6.89144 80.85 7.18649 80.4598 7.40064C80.0743 7.61954 79.6889 7.75755 79.3605 7.83845C79.3177 7.84796 79.2796 7.85748 79.2416 7.867C79.2035 7.87652 79.1654 7.88603 79.1273 7.89079C79.0512 7.90507 78.9798 7.91459 78.9132 7.92886C78.8799 7.93362 78.8466 7.93838 78.818 7.94314C78.7847 7.9479 78.7562 7.9479 78.7276 7.95266C78.6705 7.95742 78.6181 7.96218 78.5706 7.96693C78.3802 7.98121 78.2708 7.98597 78.2708 7.98597Z" fill="#410C0C"/>
<path d="M12.6513 7.65681C12.6513 7.65681 6.41248 7.80433 5.84619 7.72343C5.28465 7.64253 4.07115 7.01437 4.15205 6.46235C4.22819 5.90557 5.56542 5.63431 6.13171 5.71521C6.69325 5.79135 12.6513 7.65681 12.6513 7.65681Z" fill="#410C0C"/>
<path d="M111.006 10.2366C111.006 10.2366 111.059 10.1557 111.159 10.0082C111.259 9.86063 111.406 9.64173 111.601 9.37048C111.701 9.23723 111.811 9.08495 111.93 8.92315C111.991 8.84225 112.053 8.76135 112.12 8.67093C112.153 8.6281 112.187 8.58527 112.22 8.53768C112.253 8.49485 112.291 8.44727 112.329 8.40444C112.401 8.31402 112.477 8.21884 112.553 8.12367C112.634 8.02849 112.715 7.93331 112.8 7.82862C112.881 7.72868 112.972 7.62875 113.062 7.52406C113.11 7.47171 113.153 7.41936 113.2 7.36702C113.248 7.31467 113.295 7.26232 113.343 7.20997C113.733 6.7912 114.176 6.35339 114.68 5.92985C115.185 5.51108 115.741 5.10182 116.36 4.74491C116.517 4.65925 116.674 4.57359 116.831 4.48793C116.993 4.40703 117.155 4.33089 117.321 4.25951C117.654 4.11674 118.002 3.99302 118.359 3.88832C119.068 3.68369 119.82 3.56472 120.567 3.55996C121.314 3.55045 122.056 3.6599 122.742 3.88356C123.084 3.99777 123.408 4.14054 123.717 4.31186C123.869 4.39751 124.017 4.48793 124.16 4.58787C124.231 4.63546 124.293 4.6878 124.36 4.73539C124.421 4.78774 124.488 4.84008 124.55 4.89719C125.045 5.33976 125.43 5.88227 125.692 6.44381C125.959 7.0101 126.101 7.59544 126.144 8.13794C126.182 8.68045 126.125 9.18012 125.992 9.5989C125.925 9.80829 125.844 9.99388 125.754 10.1652C125.73 10.208 125.706 10.2461 125.683 10.2889C125.673 10.308 125.659 10.327 125.649 10.346C125.635 10.3651 125.625 10.3841 125.611 10.4031C125.587 10.4412 125.564 10.4745 125.54 10.5126C125.511 10.5459 125.487 10.5792 125.464 10.6125C125.449 10.6268 125.44 10.6458 125.426 10.6601C125.411 10.6744 125.402 10.6887 125.387 10.7029C125.364 10.7315 125.34 10.7601 125.311 10.7838C125.264 10.8362 125.211 10.8838 125.159 10.9314C125.059 11.0218 124.959 11.0932 124.869 11.155C124.683 11.2788 124.536 11.3501 124.445 11.393C124.264 11.4834 124.045 11.5643 123.808 11.6214C123.57 11.6737 123.317 11.6975 123.075 11.6642C122.951 11.6452 122.832 11.6166 122.718 11.5738C122.689 11.5643 122.661 11.55 122.632 11.5357C122.618 11.531 122.608 11.5215 122.594 11.5167C122.585 11.5119 122.57 11.5072 122.561 11.5024C122.537 11.4929 122.518 11.4739 122.494 11.4644C122.47 11.4501 122.451 11.431 122.428 11.4168C122.256 11.2835 122.099 11.0551 122.004 10.7934C121.909 10.5316 121.875 10.2461 121.89 9.98912C121.904 9.73215 121.971 9.51324 122.056 9.33241C122.142 9.15633 122.256 9.01832 122.347 8.90887C122.37 8.88508 122.389 8.85652 122.408 8.83273C122.427 8.80894 122.442 8.7899 122.456 8.76611C122.48 8.72328 122.489 8.68521 122.485 8.6519C122.475 8.61858 122.451 8.59003 122.404 8.56624C122.38 8.55672 122.351 8.5472 122.318 8.53768C122.285 8.52817 122.247 8.52817 122.199 8.52817C122.175 8.52817 122.151 8.52817 122.128 8.52817C122.104 8.53292 122.08 8.53292 122.052 8.53768C122.023 8.54244 121.999 8.5472 121.966 8.55196C121.937 8.56148 121.909 8.571 121.88 8.58051C121.757 8.61858 121.628 8.68521 121.49 8.78038C121.224 8.97074 120.962 9.28482 120.8 9.6798C120.633 10.0748 120.553 10.5459 120.595 11.0456C120.619 11.2978 120.671 11.5548 120.767 11.8117C120.862 12.0687 121.005 12.3257 121.19 12.5541C121.238 12.6112 121.29 12.6683 121.342 12.7207C121.4 12.773 121.452 12.8254 121.509 12.8777C121.538 12.9015 121.571 12.9253 121.599 12.9491C121.628 12.9729 121.661 12.9967 121.69 13.0157C121.747 13.0538 121.804 13.0966 121.866 13.1347C122.104 13.2822 122.366 13.3964 122.627 13.4726C123.156 13.6296 123.684 13.6391 124.141 13.5773C124.602 13.5106 125.002 13.3774 125.321 13.2204C125.483 13.1442 125.74 13.0062 126.044 12.7778C126.196 12.6636 126.363 12.5256 126.53 12.3543C126.615 12.2686 126.701 12.1782 126.782 12.0782C126.825 12.0259 126.867 11.9783 126.906 11.9212C126.925 11.8926 126.948 11.8641 126.967 11.8403C126.986 11.8117 127.005 11.7832 127.025 11.7546C127.063 11.6975 127.101 11.6404 127.143 11.5833C127.182 11.5215 127.215 11.4596 127.253 11.3977C127.272 11.3644 127.291 11.3359 127.31 11.3026C127.329 11.2692 127.343 11.2359 127.362 11.2026C127.396 11.136 127.434 11.0694 127.462 10.998C127.591 10.7172 127.696 10.4079 127.776 10.0795C127.933 9.42282 127.962 8.68997 127.853 7.94283C127.738 7.1957 127.486 6.43905 127.082 5.72998C126.682 5.02092 126.13 4.35469 125.43 3.82646C125.345 3.75983 125.254 3.69797 125.164 3.6361C125.069 3.579 124.978 3.51713 124.883 3.46003C124.697 3.35058 124.502 3.25064 124.307 3.16022C123.912 2.97939 123.498 2.83662 123.079 2.73193C122.237 2.5273 121.366 2.47495 120.529 2.55585C118.844 2.70814 117.274 3.34582 116.032 4.21192C115.408 4.64021 114.861 5.11134 114.38 5.59198C113.895 6.06786 113.481 6.55326 113.119 7.01486C113.076 7.07197 113.029 7.12907 112.986 7.18618C112.943 7.24329 112.9 7.30039 112.858 7.3575C112.777 7.47171 112.691 7.5764 112.615 7.68586C112.539 7.79531 112.463 7.9 112.391 7.99994C112.32 8.10463 112.253 8.20457 112.187 8.3045C112.153 8.35209 112.12 8.39968 112.091 8.44727C112.063 8.49485 112.029 8.54244 112.001 8.59003C111.944 8.68045 111.887 8.77087 111.83 8.85652C111.725 9.02784 111.63 9.18964 111.539 9.33241C111.368 9.62269 111.24 9.85112 111.154 10.0082C111.054 10.1557 111.006 10.2366 111.006 10.2366Z" fill="#410C0C"/>
<path d="M127.377 6.8866C127.377 6.8866 127.396 6.95323 127.434 7.0722C127.443 7.10075 127.453 7.13882 127.467 7.17689C127.477 7.21496 127.491 7.25779 127.51 7.30062C127.543 7.38628 127.581 7.49097 127.624 7.60043C127.672 7.70988 127.729 7.83361 127.791 7.96685C127.824 8.03348 127.862 8.1001 127.895 8.17148C127.933 8.24287 127.972 8.31425 128.014 8.38563C128.057 8.45701 128.105 8.53315 128.152 8.61405C128.2 8.69019 128.257 8.76633 128.309 8.84723C128.338 8.8853 128.367 8.92813 128.39 8.96621C128.419 9.00428 128.452 9.0471 128.481 9.08518C128.509 9.12325 128.543 9.16608 128.576 9.2089C128.59 9.22794 128.609 9.25173 128.624 9.27077C128.643 9.2898 128.657 9.30884 128.676 9.33263C128.947 9.66099 129.275 9.99411 129.661 10.3034C130.046 10.6128 130.489 10.9078 130.989 11.1457C131.488 11.3884 132.04 11.574 132.621 11.6882C133.201 11.8025 133.811 11.8405 134.425 11.8025C135.038 11.7644 135.652 11.6502 136.242 11.4551C136.832 11.2647 137.399 10.9935 137.913 10.6556C137.975 10.6128 138.041 10.5699 138.103 10.5271C138.165 10.4795 138.227 10.4367 138.289 10.3891C138.408 10.2939 138.527 10.1987 138.641 10.0988C138.869 9.89893 139.079 9.68003 139.269 9.44685C139.459 9.21842 139.635 8.97572 139.778 8.71875C139.797 8.68543 139.816 8.65688 139.835 8.62357C139.854 8.59026 139.869 8.55695 139.888 8.52364C139.921 8.45701 139.954 8.39515 139.988 8.32852C140.045 8.19528 140.107 8.06203 140.149 7.92403C140.249 7.65277 140.311 7.37676 140.354 7.10551C140.368 6.9675 140.387 6.83902 140.392 6.69625C140.397 6.62487 140.392 6.55824 140.392 6.49162C140.387 6.425 140.387 6.35837 140.383 6.29175C140.34 5.76352 140.197 5.30668 140.021 4.93073C139.93 4.74038 139.835 4.57382 139.74 4.4263C139.64 4.27877 139.54 4.15028 139.445 4.03607C139.25 3.81241 139.079 3.66489 138.964 3.58399C138.741 3.41267 138.45 3.24135 138.098 3.12714C137.922 3.06527 137.732 3.0272 137.532 3.00341C137.432 2.98913 137.332 2.98438 137.227 2.98438C137.17 2.98438 137.118 2.98437 137.061 2.98913C137.004 2.98913 136.951 2.99865 136.894 3.00341C136.452 3.05576 136.038 3.22707 135.709 3.46026C135.376 3.69344 135.11 3.98848 134.919 4.30257C134.729 4.61665 134.615 4.95452 134.572 5.26861C134.529 5.58745 134.567 5.88249 134.648 6.10616C134.729 6.33458 134.848 6.48686 134.957 6.56776C134.981 6.5868 135.01 6.60583 135.034 6.62011C135.057 6.63439 135.081 6.63914 135.105 6.64866C135.148 6.65818 135.186 6.65342 135.214 6.63914C135.338 6.56776 135.338 6.31555 135.438 6.03953C135.486 5.90153 135.557 5.74925 135.657 5.60648C135.757 5.46372 135.89 5.31619 136.047 5.19722C136.2 5.07349 136.38 4.97832 136.552 4.92121C136.723 4.86411 136.885 4.85459 137.013 4.86887C137.028 4.87362 137.047 4.87362 137.061 4.87838C137.075 4.88314 137.089 4.8879 137.104 4.8879C137.137 4.89742 137.175 4.90694 137.208 4.91645C137.28 4.94025 137.342 4.96404 137.404 4.99735C137.527 5.05922 137.641 5.1306 137.737 5.20674C137.784 5.24481 137.865 5.30192 137.965 5.40185C138.013 5.44944 138.07 5.51131 138.127 5.57793C138.184 5.64931 138.241 5.73021 138.293 5.82063C138.403 6.00622 138.503 6.24416 138.555 6.5059C138.56 6.53921 138.565 6.57252 138.569 6.60583C138.574 6.63914 138.579 6.67246 138.579 6.71053C138.584 6.77715 138.579 6.85805 138.584 6.93895C138.574 7.09599 138.56 7.26731 138.512 7.43863C138.498 7.52428 138.465 7.6147 138.436 7.70512C138.417 7.74795 138.403 7.79554 138.384 7.83837C138.374 7.86216 138.37 7.88595 138.36 7.90499L138.331 7.97161C138.255 8.15245 138.151 8.33804 138.032 8.51888C137.913 8.69971 137.775 8.88055 137.618 9.05186C137.542 9.13752 137.456 9.22318 137.37 9.30408C137.327 9.34215 137.28 9.38498 137.237 9.42305C137.194 9.46588 137.147 9.49919 137.099 9.54202C136.723 9.85134 136.285 10.1274 135.814 10.3367C135.343 10.5509 134.834 10.7079 134.31 10.7983C133.787 10.8888 133.254 10.9173 132.735 10.8745C132.216 10.8317 131.707 10.7222 131.236 10.5604C130.289 10.232 129.49 9.68479 128.909 9.12325C128.89 9.10421 128.871 9.08993 128.852 9.0709C128.833 9.05186 128.819 9.03283 128.8 9.01855C128.766 8.98048 128.733 8.94717 128.695 8.91386C128.662 8.88055 128.628 8.84248 128.595 8.80916C128.562 8.77109 128.533 8.73778 128.505 8.70447C128.443 8.63309 128.386 8.56646 128.328 8.49984C128.276 8.42846 128.224 8.36184 128.171 8.29521C128.119 8.22859 128.076 8.16197 128.033 8.1001C127.991 8.03348 127.948 7.97161 127.905 7.91451C127.829 7.79078 127.762 7.67657 127.7 7.57663C127.643 7.47194 127.596 7.37676 127.553 7.2911C127.529 7.24827 127.515 7.2102 127.496 7.17689C127.481 7.13882 127.467 7.11027 127.453 7.07696C127.405 6.94847 127.377 6.8866 127.377 6.8866Z" fill="#410C0C"/>
<path d="M139.322 6.5012C139.322 6.5012 139.507 6.41078 139.864 6.24422C140.04 6.15857 140.264 6.06339 140.521 5.95394C140.587 5.92538 140.654 5.89683 140.725 5.86828C140.797 5.83973 140.868 5.81117 140.944 5.78262C141.097 5.72551 141.258 5.65889 141.425 5.59227C142.11 5.34005 142.953 5.05928 143.947 4.81658C144.937 4.56912 146.07 4.35973 147.321 4.21697C148.573 4.07421 149.938 4.01234 151.39 4.03613C152.837 4.06469 154.369 4.18366 155.944 4.3978C156.734 4.5025 157.534 4.63099 158.338 4.78327C159.147 4.93555 159.961 5.10211 160.779 5.29722C161.598 5.48757 162.421 5.69696 163.249 5.92538C163.663 6.0396 164.077 6.15381 164.486 6.2823C164.9 6.40602 165.314 6.52499 165.728 6.65348C169.04 7.66711 172.352 8.84254 175.565 9.86568C175.765 9.93231 175.964 9.99417 176.164 10.056C176.364 10.1179 176.564 10.1798 176.764 10.2416C176.964 10.3035 177.164 10.3654 177.359 10.4272C177.459 10.4558 177.554 10.4891 177.654 10.5176C177.754 10.5462 177.854 10.5747 177.949 10.6033C178.344 10.7175 178.734 10.8317 179.124 10.9459C179.514 11.0554 179.9 11.1601 180.285 11.2648C180.476 11.3171 180.666 11.3695 180.856 11.4171C181.047 11.4646 181.237 11.5122 181.428 11.5598C181.618 11.6074 181.803 11.655 181.989 11.7026C182.084 11.7264 182.175 11.7502 182.27 11.774C182.36 11.7978 182.455 11.8168 182.551 11.8358C182.922 11.9167 183.288 12.0024 183.65 12.0785C183.74 12.0976 183.831 12.1214 183.921 12.1356C184.012 12.1547 184.102 12.169 184.192 12.188C184.373 12.2213 184.549 12.2546 184.73 12.2927C184.906 12.326 185.082 12.3593 185.258 12.3926C185.344 12.4069 185.434 12.4259 185.52 12.4402C185.606 12.4545 185.696 12.4688 185.782 12.483C186.129 12.5354 186.467 12.5925 186.8 12.6448C186.886 12.6591 186.967 12.6686 187.048 12.6829C187.129 12.6924 187.214 12.7019 187.295 12.7115C187.462 12.7305 187.623 12.7495 187.785 12.7686C188.109 12.8066 188.423 12.8447 188.732 12.8828C189.974 13.0065 191.136 13.0493 192.173 12.9684C193.206 12.8923 194.105 12.6924 194.805 12.4545C194.89 12.4259 194.976 12.3926 195.062 12.3641C195.142 12.3307 195.223 12.3022 195.299 12.2736C195.452 12.207 195.59 12.1499 195.713 12.088C195.837 12.0262 195.951 11.9691 196.051 11.9167C196.151 11.8596 196.237 11.8073 196.313 11.7645C196.351 11.7407 196.389 11.7216 196.427 11.6978C196.465 11.674 196.503 11.6502 196.542 11.6217C196.618 11.5693 196.694 11.5218 196.775 11.4694C196.851 11.4123 196.927 11.3552 197.008 11.2981C197.046 11.2695 197.089 11.241 197.127 11.2077C197.165 11.1744 197.203 11.141 197.241 11.1125C197.555 10.8555 197.864 10.551 198.15 10.1988C198.735 9.50401 199.216 8.59032 199.406 7.54814C199.502 7.01039 199.497 6.46313 199.406 5.9349C199.316 5.40667 199.145 4.89272 198.897 4.41684C198.65 3.94572 198.321 3.50791 197.926 3.14624C197.531 2.78457 197.065 2.49428 196.565 2.32772L196.47 2.29441C196.437 2.28489 196.408 2.27537 196.375 2.26586C196.313 2.24682 196.251 2.22779 196.185 2.21827C196.118 2.20399 196.061 2.18971 195.994 2.1802C195.928 2.17068 195.861 2.16116 195.794 2.15164C195.528 2.12785 195.271 2.13737 195.023 2.17544C194.9 2.19447 194.781 2.22303 194.662 2.25158C194.605 2.27061 194.548 2.28489 194.49 2.30393C194.433 2.32296 194.381 2.342 194.324 2.36579C194.11 2.45145 193.905 2.55138 193.72 2.6656C193.353 2.89402 193.049 3.17479 192.811 3.46508C192.573 3.75536 192.397 4.06945 192.287 4.36925C192.173 4.66906 192.121 4.95934 192.116 5.21156C192.111 5.46378 192.149 5.68268 192.201 5.84924C192.216 5.89207 192.23 5.93014 192.244 5.96345C192.259 6.00153 192.278 6.03008 192.292 6.06339C192.306 6.09194 192.32 6.1205 192.335 6.14429C192.349 6.16808 192.368 6.18712 192.382 6.20615C192.439 6.27754 192.487 6.31085 192.52 6.29657C192.592 6.27278 192.582 6.08718 192.611 5.80166C192.63 5.65889 192.654 5.48757 192.715 5.30198C192.777 5.11639 192.868 4.91652 193.001 4.71189C193.134 4.51202 193.306 4.30739 193.52 4.12655C193.729 3.94096 193.986 3.77916 194.267 3.66019C194.405 3.59832 194.552 3.55074 194.705 3.51742C194.743 3.50791 194.781 3.49839 194.819 3.49363C194.857 3.48887 194.895 3.47935 194.933 3.47459C195.009 3.46984 195.085 3.46032 195.161 3.46032C195.314 3.46032 195.461 3.46984 195.604 3.50315C195.637 3.51267 195.675 3.52218 195.709 3.5317C195.747 3.54122 195.785 3.55549 195.823 3.56977C195.861 3.57929 195.899 3.59832 195.932 3.6126C195.951 3.62212 195.97 3.62688 195.989 3.63639L196.042 3.66495C196.332 3.80295 196.599 4.00758 196.827 4.26456C197.055 4.52153 197.241 4.8261 197.384 5.15446C197.66 5.81117 197.731 6.56307 197.574 7.19123L197.56 7.24833C197.555 7.26737 197.546 7.29116 197.541 7.3102C197.527 7.35303 197.517 7.3911 197.503 7.43393C197.489 7.472 197.479 7.51483 197.465 7.5529C197.45 7.59097 197.431 7.6338 197.417 7.67187C197.403 7.70994 197.389 7.74801 197.37 7.79084C197.355 7.82891 197.331 7.86698 197.317 7.90505C197.279 7.98119 197.251 8.05733 197.203 8.12872C197.16 8.2001 197.122 8.27148 197.079 8.34286C197.032 8.40949 196.989 8.48087 196.941 8.54749C196.841 8.67598 196.746 8.80923 196.637 8.92344C196.423 9.16138 196.199 9.37552 195.961 9.56112C195.932 9.58491 195.904 9.60871 195.875 9.6325C195.847 9.65629 195.818 9.67533 195.785 9.69912C195.728 9.74195 195.671 9.78478 195.614 9.82285C195.556 9.86092 195.495 9.89899 195.437 9.93707C195.409 9.9561 195.38 9.97514 195.352 9.99417C195.323 10.0132 195.295 10.0275 195.266 10.0465C195.209 10.0798 195.142 10.1179 195.071 10.1607C194.995 10.1988 194.909 10.2464 194.819 10.294C194.724 10.3416 194.619 10.3844 194.51 10.4415C194.452 10.4653 194.391 10.4891 194.333 10.5129C194.272 10.5367 194.21 10.5652 194.138 10.589C193.596 10.7889 192.877 10.9745 191.997 11.0649C191.112 11.1601 190.065 11.1601 188.885 11.0792C188.59 11.0554 188.285 11.0268 187.976 10.9983C187.819 10.984 187.666 10.9697 187.505 10.9555C187.424 10.9459 187.347 10.9412 187.267 10.9317C187.186 10.9221 187.105 10.9126 187.029 10.9031C186.705 10.865 186.377 10.8222 186.044 10.7794C185.958 10.7699 185.877 10.7603 185.791 10.7461C185.706 10.7365 185.625 10.7223 185.539 10.708C185.368 10.6794 185.197 10.6556 185.025 10.6271C184.854 10.5985 184.678 10.5747 184.502 10.5462C184.416 10.5319 184.326 10.5176 184.24 10.5034C184.15 10.4891 184.064 10.4701 183.973 10.4558C183.621 10.3892 183.26 10.3225 182.898 10.2559C182.808 10.2369 182.717 10.2226 182.622 10.2036C182.532 10.1845 182.441 10.1655 182.346 10.1465C182.16 10.1084 181.98 10.0656 181.789 10.0275C181.604 9.98941 181.418 9.94658 181.228 9.90851C181.037 9.87044 180.852 9.82285 180.661 9.77527C179.143 9.42787 177.568 9.00434 175.96 8.55701C172.743 7.65759 169.378 6.60114 166.004 5.70172C165.581 5.58751 165.157 5.48281 164.738 5.37336C164.32 5.26391 163.896 5.16397 163.473 5.05928C162.63 4.85941 161.783 4.67857 160.946 4.51678C160.108 4.35022 159.275 4.21221 158.452 4.08848C157.629 3.96475 156.81 3.86482 156.011 3.78868C154.407 3.63164 152.851 3.56977 151.38 3.59357C149.915 3.62688 148.53 3.73633 147.274 3.93144C146.012 4.12179 144.88 4.37877 143.89 4.6643C142.9 4.94983 142.063 5.26391 141.387 5.53992C141.22 5.6113 141.058 5.68268 140.911 5.74931C140.835 5.78262 140.763 5.81117 140.692 5.84448C140.625 5.8778 140.559 5.91111 140.492 5.93966C140.235 6.06339 140.016 6.16332 139.845 6.2585C139.507 6.40127 139.322 6.5012 139.322 6.5012Z" fill="#410C0C"/>
<path d="M198.43 8.76562C198.43 8.76562 198.573 8.82749 198.83 8.93218C198.959 8.98453 199.111 9.05115 199.292 9.12254C199.473 9.18916 199.677 9.2653 199.901 9.35096C199.958 9.36999 200.015 9.39379 200.072 9.41282C200.129 9.43186 200.191 9.45089 200.253 9.47469C200.377 9.51752 200.505 9.56035 200.634 9.60318C200.895 9.69359 201.176 9.77449 201.471 9.86015C202.057 10.0315 202.694 10.1885 203.346 10.3313C204.65 10.612 206.016 10.7738 207.115 10.8405C207.391 10.8547 207.653 10.8643 207.886 10.8738C208.124 10.8738 208.338 10.8785 208.524 10.8785C208.619 10.8785 208.705 10.8785 208.786 10.8785C208.866 10.8785 208.938 10.8738 209 10.869C209.128 10.8643 209.223 10.8547 209.285 10.85C209.404 10.8357 209.542 10.8167 209.69 10.7881C209.837 10.7548 209.994 10.712 210.156 10.6644C210.237 10.6406 210.318 10.612 210.404 10.5883C210.484 10.5597 210.57 10.5311 210.651 10.4978C210.813 10.4312 210.975 10.3598 211.127 10.2884C211.431 10.1457 211.698 9.9696 211.884 9.81256C212.064 9.65076 212.164 9.49372 212.131 9.35572C212.098 9.21771 211.945 9.11778 211.717 9.03688C211.489 8.96074 211.194 8.91791 210.875 8.87508C210.713 8.85604 210.551 8.84177 210.385 8.83701C210.304 8.83225 210.218 8.82749 210.137 8.82273C210.056 8.81797 209.975 8.81321 209.894 8.81321C209.737 8.80845 209.585 8.81321 209.442 8.81797C209.304 8.81797 209.176 8.82749 209.066 8.83701C209.009 8.84177 208.924 8.85604 208.805 8.87508C208.748 8.8846 208.681 8.89887 208.61 8.90839C208.538 8.91791 208.457 8.93218 208.372 8.94646C208.2 8.97501 208.005 9.00357 207.786 9.04164C207.567 9.07019 207.329 9.1035 207.072 9.13681C206.049 9.26054 204.745 9.35572 203.465 9.33192C202.823 9.31765 202.185 9.2891 201.595 9.23675C201.3 9.2082 201.01 9.18916 200.743 9.15109C200.61 9.13205 200.477 9.11778 200.348 9.1035C200.286 9.09398 200.224 9.08922 200.163 9.07971C200.101 9.07019 200.044 9.06067 199.982 9.05115C199.749 9.01308 199.534 8.97977 199.344 8.95122C199.154 8.91791 198.992 8.8846 198.859 8.8608C198.583 8.79418 198.43 8.76562 198.43 8.76562Z" fill="#410C0C"/>
<path d="M107.019 0.5C107.019 0.5 107.061 0.590417 107.147 0.756976C107.19 0.842635 107.242 0.94257 107.299 1.0663C107.361 1.18527 107.442 1.32327 107.523 1.47556C107.866 2.08469 108.403 2.94127 109.193 3.874C109.983 4.80197 111.035 5.80608 112.325 6.6817C112.972 7.11951 113.676 7.52401 114.433 7.87616C115.189 8.23783 115.984 8.51384 116.741 8.81365C117.122 8.96593 117.493 9.12297 117.845 9.29429C117.931 9.33712 118.021 9.37995 118.107 9.42754L118.359 9.5703L118.602 9.71782C118.682 9.77017 118.759 9.82252 118.835 9.87486C118.987 9.98432 119.13 10.0985 119.263 10.2175C119.296 10.2461 119.33 10.2746 119.363 10.3079L119.458 10.4031L119.553 10.4983C119.582 10.5316 119.61 10.5649 119.639 10.5934C119.863 10.8552 120.043 11.1502 120.181 11.4596C120.457 12.0782 120.557 12.7587 120.51 13.3821C120.462 14.0055 120.262 14.5766 119.972 15.0144C119.953 15.0429 119.934 15.0715 119.915 15.0953C119.896 15.1238 119.877 15.1476 119.858 15.1762C119.815 15.2238 119.777 15.2761 119.739 15.3237C119.696 15.3713 119.658 15.4141 119.615 15.457C119.591 15.476 119.572 15.4998 119.549 15.5188C119.525 15.5379 119.506 15.5569 119.482 15.5807C119.301 15.7377 119.106 15.871 118.906 15.9757C118.506 16.1851 118.102 16.2945 117.745 16.3421C117.702 16.3469 117.659 16.3564 117.612 16.3564C117.569 16.3611 117.526 16.3611 117.483 16.3659C117.402 16.3659 117.321 16.3706 117.245 16.3706C117.169 16.3706 117.098 16.3659 117.031 16.3611C116.964 16.3516 116.903 16.3516 116.841 16.3421C116.603 16.3088 116.436 16.2612 116.332 16.2326C116.122 16.1755 115.894 16.0851 115.665 15.9614C115.551 15.8948 115.437 15.8234 115.327 15.7377C115.218 15.6521 115.113 15.5521 115.009 15.4427C114.809 15.219 114.623 14.943 114.49 14.6384C114.352 14.3339 114.257 13.996 114.209 13.6629C114.185 13.4963 114.171 13.3298 114.171 13.168C114.171 13.0062 114.176 12.8491 114.195 12.6968C114.223 12.397 114.295 12.1258 114.366 11.8926C114.509 11.431 114.68 11.1312 114.58 11.0217C114.533 10.9694 114.428 10.9742 114.266 11.0455C114.109 11.1169 113.905 11.2549 113.695 11.4786C113.486 11.7022 113.272 12.0021 113.105 12.378C113.019 12.5636 112.953 12.7682 112.896 12.9871C112.839 13.206 112.801 13.4345 112.777 13.6724C112.734 14.1483 112.767 14.6575 112.891 15.1571C113.01 15.6568 113.234 16.1517 113.529 16.5848C113.681 16.7989 113.852 16.9988 114.033 17.1796C114.219 17.3605 114.414 17.5128 114.614 17.646C115.013 17.9077 115.418 18.0791 115.775 18.179C115.951 18.2313 116.246 18.298 116.636 18.3313C116.731 18.3408 116.836 18.3456 116.945 18.3503C117.055 18.3503 117.169 18.3551 117.288 18.3456C117.407 18.3408 117.531 18.3313 117.664 18.317C117.731 18.3075 117.793 18.298 117.859 18.2884C117.926 18.2789 117.992 18.2647 118.064 18.2504C118.611 18.1457 119.23 17.9363 119.834 17.5604C120.134 17.3748 120.434 17.1416 120.71 16.8608C120.743 16.8275 120.776 16.7894 120.814 16.7561C120.848 16.718 120.881 16.68 120.914 16.6419C120.981 16.5658 121.043 16.4849 121.105 16.404C121.167 16.3231 121.224 16.2374 121.281 16.1517C121.309 16.1089 121.333 16.0661 121.362 16.0185C121.39 15.9757 121.414 15.9281 121.438 15.8852C122.256 14.4338 122.299 12.4684 121.423 10.8361C121.205 10.4316 120.929 10.0462 120.591 9.70831C120.548 9.66548 120.505 9.62265 120.462 9.58458L120.334 9.47037L120.2 9.35615C120.158 9.31808 120.11 9.28477 120.062 9.25146C119.882 9.1087 119.691 8.98021 119.496 8.86124C119.396 8.80413 119.301 8.74703 119.201 8.68992C119.101 8.63757 119.001 8.58523 118.901 8.53764L118.597 8.39963C118.497 8.3568 118.392 8.31397 118.292 8.27114C117.888 8.10934 117.478 7.97134 117.074 7.84761C116.27 7.59539 115.48 7.39076 114.752 7.10524C114.014 6.82922 113.314 6.49611 112.663 6.12492C111.363 5.38254 110.269 4.49265 109.422 3.64558C108.579 2.79375 107.98 1.99427 107.59 1.41369C107.494 1.26617 107.404 1.14244 107.333 1.02347C107.261 0.909258 107.204 0.809323 107.157 0.728423C107.071 0.585659 107.019 0.5 107.019 0.5Z" fill="#410C0C"/>
<path d="M142.277 7.65746C142.277 7.65746 142.586 7.60988 143.128 7.52422C143.266 7.50518 143.414 7.48615 143.581 7.46235C143.747 7.43856 143.923 7.41476 144.114 7.39573C144.304 7.37669 144.509 7.3529 144.723 7.32911C144.937 7.31007 145.165 7.29103 145.398 7.272C146.345 7.20062 147.454 7.15303 148.649 7.17206C149.843 7.18634 151.118 7.27676 152.399 7.4338C152.56 7.45283 152.717 7.47187 152.879 7.49566L153.36 7.56705L153.598 7.60036L153.836 7.64319C153.993 7.67174 154.155 7.69553 154.312 7.72409C154.469 7.75264 154.626 7.78595 154.783 7.8145C154.94 7.84782 155.097 7.87637 155.249 7.90492C155.558 7.97155 155.858 8.03817 156.149 8.11431C156.729 8.26659 157.272 8.45219 157.743 8.68537C157.981 8.79958 158.2 8.92807 158.399 9.06131C158.595 9.19456 158.771 9.34208 158.928 9.49437C159.085 9.64665 159.223 9.80369 159.342 9.96549C159.456 10.1273 159.551 10.2843 159.632 10.4414C159.703 10.5984 159.765 10.7459 159.803 10.8887C159.818 10.922 159.818 10.9601 159.827 10.9934C159.832 11.0267 159.846 11.06 159.846 11.0933C159.856 11.16 159.87 11.2218 159.87 11.2837C159.875 11.3122 159.875 11.3455 159.879 11.3741C159.879 11.4027 159.879 11.4264 159.879 11.455C159.879 11.4788 159.879 11.5073 159.875 11.5311C159.875 11.5549 159.87 11.5787 159.87 11.6025C159.86 11.6977 159.841 11.7834 159.822 11.8643C159.784 12.0165 159.737 12.1307 159.708 12.1974C159.651 12.3354 159.575 12.4877 159.47 12.6399C159.366 12.7875 159.242 12.9302 159.094 13.0397C159.023 13.092 158.942 13.1396 158.856 13.1777C158.766 13.2158 158.704 13.2396 158.618 13.2586C158.452 13.2871 158.238 13.2681 158.033 13.192C157.828 13.1206 157.633 13.0016 157.481 12.8684C157.324 12.7351 157.21 12.5876 157.119 12.4448C157.034 12.3021 156.981 12.1641 156.934 12.0546C156.924 12.0261 156.91 12.0023 156.9 11.9785C156.891 11.9547 156.877 11.9356 156.867 11.9166C156.843 11.8785 156.815 11.8547 156.781 11.8405C156.748 11.8309 156.71 11.8357 156.667 11.8595C156.648 11.869 156.624 11.888 156.601 11.9071C156.577 11.9261 156.558 11.9547 156.534 11.9832C156.444 12.1022 156.358 12.3068 156.344 12.5828C156.329 12.8541 156.386 13.1872 156.544 13.5108C156.701 13.8344 156.943 14.158 157.281 14.4197C157.448 14.553 157.643 14.6672 157.852 14.7576C158.066 14.848 158.3 14.9147 158.552 14.9432C158.614 14.948 158.675 14.9575 158.742 14.9575C158.804 14.9575 158.871 14.9622 158.937 14.9575C159.07 14.948 159.189 14.9384 159.308 14.9147C159.546 14.8718 159.78 14.7909 159.989 14.691C160.417 14.4911 160.765 14.2008 161.026 13.8963C161.288 13.5917 161.469 13.2729 161.588 12.9873C161.645 12.8446 161.735 12.6066 161.797 12.2735C161.826 12.107 161.85 11.9166 161.854 11.7072C161.854 11.6549 161.854 11.5978 161.854 11.5454C161.854 11.4883 161.85 11.4312 161.845 11.3741C161.84 11.317 161.835 11.2551 161.826 11.198C161.816 11.1409 161.807 11.0838 161.797 11.0219C161.783 10.903 161.75 10.784 161.721 10.6603C161.707 10.5984 161.683 10.5365 161.664 10.4747C161.645 10.4128 161.626 10.351 161.602 10.2891C161.512 10.0416 161.388 9.79417 161.24 9.54671C161.093 9.30401 160.917 9.06607 160.717 8.84241C160.517 8.61874 160.293 8.4046 160.046 8.20949C159.799 8.01437 159.532 7.82878 159.247 7.67174C158.961 7.5147 158.666 7.38145 158.357 7.26248C157.738 7.0293 157.091 6.87702 156.439 6.76756C156.11 6.71522 155.787 6.67239 155.459 6.63432C155.297 6.61528 155.13 6.60101 154.968 6.58673C154.802 6.57245 154.64 6.55342 154.473 6.53914C154.307 6.52487 154.14 6.51535 153.979 6.50107L153.731 6.48204L153.484 6.46776L152.984 6.44397C152.817 6.43445 152.651 6.43445 152.484 6.42969C151.157 6.39638 149.848 6.43445 148.634 6.53914C147.421 6.63908 146.307 6.80088 145.37 6.96743C145.137 7.01026 144.908 7.05309 144.694 7.09592C144.48 7.13875 144.28 7.18158 144.09 7.22441C143.899 7.26248 143.723 7.30531 143.561 7.34338C143.4 7.38145 143.252 7.41952 143.119 7.44808C142.581 7.57656 142.277 7.65746 142.277 7.65746Z" fill="#410C0C"/>
<path d="M108.517 8.66113C108.517 8.66113 108.498 8.72776 108.456 8.84673C108.437 8.90859 108.408 8.98473 108.384 9.07039C108.36 9.16081 108.332 9.2655 108.299 9.37971C108.27 9.49868 108.241 9.62717 108.208 9.76994C108.194 9.84132 108.18 9.91746 108.165 9.9936C108.151 10.0697 108.137 10.1506 108.122 10.2363C108.108 10.322 108.099 10.4076 108.084 10.4933C108.075 10.5837 108.065 10.6741 108.051 10.7693C108.046 10.8169 108.042 10.8645 108.037 10.9121C108.032 10.9596 108.027 11.012 108.027 11.0596C108.023 11.1595 108.008 11.2642 108.008 11.3689C107.965 12.2064 108.037 13.2058 108.28 14.2575C108.403 14.781 108.565 15.3235 108.779 15.8565C108.993 16.3894 109.255 16.9224 109.56 17.4364C109.864 17.9503 110.221 18.4405 110.611 18.8973C111.006 19.3542 111.439 19.773 111.896 20.1442C112.815 20.8865 113.824 21.4243 114.761 21.7812C115.232 21.962 115.684 22.0953 116.103 22.2C116.522 22.2999 116.907 22.3713 117.25 22.4141C117.93 22.5045 118.421 22.5045 118.639 22.5045C119.077 22.495 119.653 22.4236 120.253 22.2666C120.852 22.1143 121.471 21.8764 121.999 21.5956C122.532 21.3148 122.97 20.9865 123.251 20.7009C123.322 20.6296 123.384 20.5629 123.432 20.4963C123.479 20.4297 123.522 20.3726 123.551 20.3155C123.608 20.206 123.622 20.1204 123.584 20.0585C123.546 19.9966 123.465 19.9681 123.341 19.9633C123.279 19.9586 123.213 19.9633 123.137 19.9681C123.06 19.9776 122.975 19.9824 122.884 19.9966C122.518 20.0537 122.042 20.1537 121.528 20.2346C121.014 20.3202 120.457 20.3821 119.943 20.4202C119.429 20.4582 118.949 20.463 118.587 20.4725C118.406 20.4725 118.002 20.5058 117.431 20.4773C117.145 20.4678 116.817 20.4344 116.455 20.3916C116.094 20.3393 115.703 20.2631 115.294 20.1537C114.471 19.9348 113.567 19.5731 112.715 19.0211C112.286 18.7451 111.872 18.4262 111.482 18.0646C111.092 17.7029 110.73 17.2984 110.402 16.8701C110.074 16.4418 109.779 15.9849 109.526 15.5138C109.274 15.0427 109.065 14.5621 108.893 14.0814C108.556 13.1249 108.379 12.1779 108.322 11.3689C108.265 10.5551 108.318 9.86987 108.379 9.39875C108.398 9.27978 108.413 9.17508 108.427 9.08467C108.441 8.99425 108.46 8.91811 108.47 8.85149C108.508 8.72776 108.517 8.66113 108.517 8.66113Z" fill="#410C0C"/>
<path d="M134.724 7.98597C134.724 7.98597 134.62 7.95266 134.443 7.89555C134.401 7.87652 134.353 7.85748 134.301 7.83845C134.248 7.81465 134.191 7.79562 134.134 7.76706C134.077 7.73851 134.015 7.70996 133.949 7.67665C133.915 7.66237 133.882 7.64334 133.849 7.6243C133.815 7.60526 133.782 7.58623 133.749 7.56719C133.477 7.40539 133.182 7.18649 132.916 6.90572C132.645 6.62971 132.407 6.29659 132.226 5.94444C132.216 5.92064 132.202 5.90161 132.193 5.87782L132.164 5.81119L132.102 5.67795C132.064 5.58753 132.035 5.49235 132.002 5.40669C131.978 5.31152 131.95 5.2211 131.931 5.13068C131.921 5.08309 131.912 5.04026 131.902 4.99268C131.893 4.94985 131.883 4.90226 131.878 4.85943C131.831 4.50252 131.845 4.16464 131.888 3.87435C131.893 3.83628 131.902 3.80297 131.907 3.7649C131.912 3.73159 131.917 3.69352 131.926 3.66021C131.94 3.59358 131.955 3.53172 131.974 3.46986C132.012 3.35088 132.04 3.24143 132.078 3.15101C132.097 3.10343 132.112 3.0606 132.126 3.02253C132.14 2.98446 132.159 2.95114 132.169 2.91783C132.193 2.85597 132.207 2.80838 132.221 2.77983C132.24 2.72272 132.259 2.6561 132.273 2.5752C132.292 2.49906 132.307 2.4134 132.321 2.32298C132.331 2.28015 132.34 2.23256 132.345 2.18498C132.354 2.13739 132.354 2.0898 132.369 2.04221C132.388 1.94703 132.397 1.84234 132.411 1.74716C132.421 1.69958 132.426 1.64723 132.43 1.59488C132.435 1.54254 132.445 1.49971 132.45 1.44736C132.459 1.35218 132.464 1.25225 132.464 1.16659C132.464 0.990513 132.435 0.833472 132.335 0.728778C132.24 0.628843 132.083 0.595531 131.883 0.624084C131.783 0.63836 131.679 0.676431 131.569 0.724019C131.517 0.747813 131.455 0.776366 131.403 0.809678C131.345 0.842989 131.293 0.876301 131.236 0.91913C131.122 0.995271 131.022 1.09045 130.917 1.18562C130.865 1.23321 130.817 1.28556 130.774 1.34266C130.727 1.39501 130.684 1.45212 130.641 1.50446C130.56 1.61392 130.489 1.72813 130.432 1.83758C130.379 1.94703 130.332 2.05173 130.299 2.14215C130.279 2.18973 130.265 2.26587 130.241 2.36581C130.232 2.41816 130.218 2.47526 130.208 2.53713C130.199 2.59899 130.189 2.67037 130.18 2.74652C130.156 2.89404 130.156 3.07011 130.146 3.26047C130.151 3.35564 130.151 3.45558 130.156 3.55551C130.156 3.60786 130.161 3.66021 130.165 3.71255C130.17 3.7649 130.175 3.81725 130.18 3.87435C130.232 4.31217 130.346 4.79281 130.555 5.25917C130.579 5.31628 130.608 5.37338 130.636 5.43049C130.665 5.48759 130.694 5.5447 130.727 5.6018C130.789 5.71602 130.86 5.82071 130.927 5.93016C131.003 6.03486 131.074 6.13955 131.155 6.23948L131.279 6.38701L131.341 6.45839C131.36 6.48218 131.384 6.50598 131.407 6.52501C131.755 6.89144 132.145 7.18649 132.535 7.40064C132.921 7.61954 133.306 7.75755 133.634 7.83845C133.677 7.84796 133.715 7.85748 133.753 7.867C133.791 7.87652 133.83 7.88603 133.868 7.89079C133.944 7.90507 134.015 7.91459 134.082 7.92886C134.115 7.93362 134.148 7.93838 134.177 7.94314C134.21 7.9479 134.239 7.9479 134.267 7.95266C134.324 7.95742 134.377 7.96218 134.424 7.96693C134.615 7.98121 134.724 7.98597 134.724 7.98597Z" fill="#410C0C"/>
<path d="M200.348 7.65681C200.348 7.65681 206.587 7.80433 207.153 7.72343C207.715 7.64253 208.929 7.01437 208.848 6.46235C208.771 5.90557 207.434 5.63431 206.868 5.71521C206.306 5.79135 200.348 7.65681 200.348 7.65681Z" fill="#410C0C"/>
</g>
<defs>
<clipPath id="clip0_48_1051">
<rect width="211.282" height="22" fill="white" transform="translate(0.858887 0.5)"/>
</clipPath>
</defs>
</svg>
