<svg width="60" height="60" viewBox="0 0 60 60" fill="none" xmlns="http://www.w3.org/2000/svg">
<g filter="url(#filter0_b_737_156)">
<circle cx="30" cy="30" r="30" fill="url(#paint0_radial_737_156)"/>
</g>
<g clip-path="url(#clip0_737_156)">
<path d="M16.8749 17.0414C14.5174 19.4901 14.9999 22.0914 14.9999 29.9939C14.9999 36.5564 13.8549 43.1351 19.8474 44.6839C21.7186 45.1651 38.2986 45.1651 40.1674 44.6814C42.6624 44.0376 44.6924 42.0139 44.9699 38.4851C45.0086 37.9926 45.0086 22.0039 44.9686 21.5014C44.6736 17.7426 42.3599 15.5764 39.3111 15.1376C38.6124 15.0364 38.4724 15.0064 34.8874 15.0001C22.1711 15.0064 19.3836 14.4401 16.8749 17.0414Z" fill="white"/>
<path d="M29.9973 18.9238C25.4585 18.9238 21.1485 18.52 19.5023 22.745C18.8223 24.49 18.921 26.7563 18.921 30.0013C18.921 32.8488 18.8298 35.525 19.5023 37.2563C21.1448 41.4838 25.4898 41.0788 29.9948 41.0788C34.341 41.0788 38.8223 41.5313 40.4885 37.2563C41.1698 35.4938 41.0698 33.2613 41.0698 30.0013C41.0698 25.6738 41.3085 22.88 39.2098 20.7825C37.0848 18.6575 34.211 18.9238 29.9923 18.9238H29.9973ZM29.0048 20.92C38.4723 20.905 39.6773 19.8525 39.0123 34.4738C38.776 39.645 34.8385 39.0775 29.9985 39.0775C21.1735 39.0775 20.9198 38.825 20.9198 29.9963C20.9198 21.065 21.6198 20.925 29.0048 20.9175V20.92ZM35.9098 22.7588C35.5574 22.7588 35.2194 22.8988 34.9702 23.148C34.721 23.3971 34.581 23.7351 34.581 24.0875C34.581 24.4399 34.721 24.7779 34.9702 25.0271C35.2194 25.2763 35.5574 25.4163 35.9098 25.4163C36.2622 25.4163 36.6001 25.2763 36.8493 25.0271C37.0985 24.7779 37.2385 24.4399 37.2385 24.0875C37.2385 23.7351 37.0985 23.3971 36.8493 23.148C36.6001 22.8988 36.2622 22.7588 35.9098 22.7588ZM29.9973 24.3125C29.2503 24.3126 28.5106 24.4598 27.8206 24.7457C27.1305 25.0317 26.5035 25.4507 25.9753 25.979C24.9087 27.0458 24.3096 28.4927 24.3098 30.0013C24.3099 31.5099 24.9094 32.9566 25.9762 34.0232C27.0431 35.0898 28.4899 35.6889 29.9985 35.6888C31.5071 35.6886 32.9538 35.0892 34.0204 34.0223C35.0871 32.9555 35.6862 31.5086 35.686 30C35.6859 28.4914 35.0864 27.0447 34.0196 25.9781C32.9527 24.9115 31.5059 24.3124 29.9973 24.3125ZM29.9973 26.3088C34.8785 26.3088 34.8848 33.6938 29.9973 33.6938C25.1173 33.6938 25.1098 26.3088 29.9973 26.3088Z" fill="#464646"/>
</g>
<defs>
<filter id="filter0_b_737_156" x="-42" y="-42" width="144" height="144" filterUnits="userSpaceOnUse" color-interpolation-filters="sRGB">
<feFlood flood-opacity="0" result="BackgroundImageFix"/>
<feGaussianBlur in="BackgroundImageFix" stdDeviation="21"/>
<feComposite in2="SourceAlpha" operator="in" result="effect1_backgroundBlur_737_156"/>
<feBlend mode="normal" in="SourceGraphic" in2="effect1_backgroundBlur_737_156" result="shape"/>
</filter>
<radialGradient id="paint0_radial_737_156" cx="0" cy="0" r="1" gradientUnits="userSpaceOnUse" gradientTransform="translate(0.539685 1.78512) rotate(44.0741) scale(81.4816 130.318)">
<stop stop-color="white" stop-opacity="0.4"/>
<stop offset="1" stop-color="white" stop-opacity="0.2"/>
</radialGradient>
<clipPath id="clip0_737_156">
<rect width="30" height="30" fill="white" transform="translate(15 15)"/>
</clipPath>
</defs>
</svg>
