<svg width="60" height="60" viewBox="0 0 60 60" fill="none" xmlns="http://www.w3.org/2000/svg">
<g filter="url(#filter0_b_737_163)">
<circle cx="30" cy="30" r="30" fill="url(#paint0_radial_737_163)"/>
</g>
<g clip-path="url(#clip0_737_163)">
<path d="M40.9091 15H19.0909C16.8316 15 15 16.8316 15 19.0909V40.9091C15 43.1684 16.8316 45 19.0909 45H40.9091C43.1684 45 45 43.1684 45 40.9091V19.0909C45 16.8316 43.1684 15 40.9091 15Z" fill="white"/>
<path d="M25.8068 23.1818C25.8068 23.6875 25.6568 24.1818 25.3759 24.6023C25.0949 25.0228 24.6956 25.3505 24.2284 25.544C23.7612 25.7375 23.2471 25.7882 22.7511 25.6895C22.2551 25.5909 21.7996 25.3473 21.442 24.9898C21.0844 24.6322 20.8409 24.1766 20.7422 23.6806C20.6436 23.1847 20.6942 22.6706 20.8877 22.2034C21.0813 21.7362 21.409 21.3368 21.8294 21.0559C22.2499 20.775 22.7442 20.625 23.2499 20.625C23.928 20.625 24.5784 20.8944 25.0579 21.3739C25.5374 21.8534 25.8068 22.5037 25.8068 23.1818ZM25.2272 27.4432V38.7392C25.2277 38.8225 25.2116 38.9051 25.1801 38.9823C25.1485 39.0594 25.102 39.1295 25.0432 39.1886C24.9844 39.2477 24.9146 39.2945 24.8376 39.3265C24.7607 39.3585 24.6782 39.375 24.5948 39.375H21.8999C21.8166 39.3752 21.734 39.359 21.657 39.3272C21.58 39.2954 21.51 39.2487 21.4511 39.1898C21.3921 39.1309 21.3454 39.0609 21.3137 38.9838C21.2819 38.9068 21.2656 38.8242 21.2658 38.7409V27.4432C21.2658 27.275 21.3326 27.1137 21.4516 26.9948C21.5705 26.8759 21.7318 26.8091 21.8999 26.8091H24.5948C24.7627 26.8095 24.9235 26.8765 25.0421 26.9954C25.1606 27.1143 25.2272 27.2753 25.2272 27.4432ZM39.3136 33.3239V38.792C39.3138 38.8687 39.2989 38.9446 39.2697 39.0154C39.2404 39.0862 39.1975 39.1506 39.1433 39.2048C39.0892 39.2589 39.0248 39.3019 38.954 39.3311C38.8831 39.3603 38.8072 39.3752 38.7306 39.375H35.8329C35.7563 39.3752 35.6804 39.3603 35.6095 39.3311C35.5387 39.3019 35.4744 39.2589 35.4202 39.2048C35.366 39.1506 35.3231 39.0862 35.2939 39.0154C35.2646 38.9446 35.2497 38.8687 35.2499 38.792V33.4926C35.2499 32.7017 35.4818 30.029 33.1823 30.029C31.4011 30.029 31.038 31.858 30.9664 32.6795V38.792C30.9664 38.9452 30.9062 39.0922 30.7987 39.2013C30.6912 39.3104 30.5451 39.3728 30.392 39.375H27.5931C27.5166 39.375 27.4409 39.3599 27.3703 39.3306C27.2997 39.3013 27.2355 39.2583 27.1815 39.2042C27.1275 39.15 27.0847 39.0857 27.0556 39.015C27.0265 38.9443 27.0116 38.8685 27.0119 38.792V27.3938C27.0116 27.3173 27.0265 27.2415 27.0556 27.1708C27.0847 27.1001 27.1275 27.0358 27.1815 26.9816C27.2355 26.9275 27.2997 26.8845 27.3703 26.8552C27.4409 26.8259 27.5166 26.8108 27.5931 26.8108H30.392C30.5466 26.8108 30.6949 26.8722 30.8042 26.9815C30.9135 27.0909 30.9749 27.2391 30.9749 27.3938V28.379C31.6363 27.3869 32.6164 26.6216 34.7079 26.6216C39.3408 26.6216 39.3136 30.9477 39.3136 33.3239Z" fill="#464646"/>
</g>
<defs>
<filter id="filter0_b_737_163" x="-42" y="-42" width="144" height="144" filterUnits="userSpaceOnUse" color-interpolation-filters="sRGB">
<feFlood flood-opacity="0" result="BackgroundImageFix"/>
<feGaussianBlur in="BackgroundImageFix" stdDeviation="21"/>
<feComposite in2="SourceAlpha" operator="in" result="effect1_backgroundBlur_737_163"/>
<feBlend mode="normal" in="SourceGraphic" in2="effect1_backgroundBlur_737_163" result="shape"/>
</filter>
<radialGradient id="paint0_radial_737_163" cx="0" cy="0" r="1" gradientUnits="userSpaceOnUse" gradientTransform="translate(0.539685 1.78512) rotate(44.0741) scale(81.4816 130.318)">
<stop stop-color="white" stop-opacity="0.4"/>
<stop offset="1" stop-color="white" stop-opacity="0.2"/>
</radialGradient>
<clipPath id="clip0_737_163">
<rect width="30" height="30" fill="white" transform="translate(15 15)"/>
</clipPath>
</defs>
</svg>
