<svg width="616" height="601" viewBox="0 0 816 801" fill="none" xmlns="http://www.w3.org/2000/svg">
<path d="M695.223 799.787C695.223 800.054 562.748 800.283 399.387 800.283C236.025 800.283 103.493 800.054 103.493 799.787C103.493 799.52 235.949 799.291 399.387 799.291C562.824 799.291 695.223 799.539 695.223 799.787Z" fill="#263238"/>
<path d="M633.602 49.1791L623.778 52.6893L619.561 39.8501C611.816 16.1748 587.129 3.60268 564.446 11.5962C541.763 19.5897 529.687 45.5543 537.432 69.2296L541.648 82.0688L531.785 85.5982C528.024 87.057 524.97 89.909 523.258 93.5614C521.545 97.2139 521.306 101.386 522.59 105.21L549.928 188.751C550.496 190.644 551.438 192.404 552.699 193.925C553.96 195.447 555.514 196.7 557.269 197.609C559.023 198.519 560.943 199.066 562.913 199.219C564.884 199.372 566.865 199.127 568.739 198.499L670.556 162.08C674.366 160.624 677.464 157.747 679.197 154.054C680.929 150.36 681.162 146.139 679.847 142.278L652.489 58.7369C651.907 56.8491 650.951 55.0979 649.677 53.5879C648.403 52.0778 646.838 50.8398 645.075 49.9478C643.313 49.0558 641.388 48.528 639.417 48.3959C637.446 48.2638 635.468 48.5302 633.602 49.1791ZM555.995 62.5334C553.906 56.3774 554.281 49.6521 557.041 43.7665C559.801 37.8808 564.731 33.2915 570.799 30.96C573.795 29.9348 576.967 29.5237 580.126 29.7512C583.285 29.9787 586.365 30.8401 589.184 32.2841C592.002 33.728 594.501 35.725 596.531 38.1557C598.561 40.5864 600.08 43.4011 600.999 46.4319L605.196 59.2711L560.192 75.3726L555.995 62.5334ZM613.228 136.669L620.21 157.998C620.338 158.425 620.297 158.886 620.094 159.284C619.892 159.682 619.544 159.986 619.123 160.134L609.336 163.626C608.946 163.734 608.53 163.687 608.174 163.495C607.819 163.303 607.551 162.98 607.428 162.595L600.388 141.362C596.507 141.151 592.782 139.758 589.714 137.372C586.645 134.985 584.379 131.718 583.219 128.008C581.559 123.103 581.862 117.746 584.063 113.059C586.264 108.372 590.193 104.719 595.028 102.863C597.414 102.048 599.941 101.721 602.457 101.903C604.973 102.085 607.426 102.771 609.671 103.921C611.916 105.071 613.906 106.661 615.523 108.597C617.141 110.533 618.352 112.774 619.084 115.188C620.312 118.956 620.413 123.001 619.376 126.827C618.34 130.653 616.209 134.093 613.247 136.726L613.228 136.669Z" fill="#FFBB15"/>
<path d="M623.339 52.4599C623.339 52.727 605.12 59.5759 582.456 67.722C559.791 75.8681 541.305 82.4117 541.21 82.221C541.114 82.0302 559.429 75.1241 582.112 66.9589C604.795 58.7937 623.244 52.2119 623.339 52.4599Z" fill="#263238"/>
<path d="M644.973 55.9707C645.057 56.1363 645.127 56.3086 645.183 56.4858C645.335 56.8673 645.507 57.3634 645.736 57.9738C646.232 59.3665 646.919 61.2934 647.777 63.6971L655.103 85.0259C658.156 94.0687 661.799 104.79 665.844 116.695C667.752 122.666 670.003 128.885 672.101 135.429C673.225 138.801 673.71 142.353 673.532 145.902C673.37 147.749 672.845 149.545 671.987 151.187C671.07 152.824 669.846 154.268 668.381 155.441C665.434 157.593 662.162 159.261 658.69 160.382L648.865 163.912L630.264 170.57L598.767 181.787L577.496 189.266L571.772 191.174L570.246 191.67C570.083 191.742 569.909 191.787 569.731 191.803C569.731 191.803 569.884 191.803 570.208 191.574L571.696 190.983L577.419 188.827L598.576 181.043L630.016 169.597L648.579 162.882L658.404 159.333C661.777 158.257 664.954 156.64 667.809 154.545C669.172 153.456 670.312 152.116 671.167 150.596C671.974 149.077 672.461 147.408 672.597 145.693C672.773 142.272 672.307 138.849 671.224 135.601C669.163 129.114 666.989 122.838 665.024 116.866C661.055 104.943 657.393 94.1831 654.493 85.1403C651.593 76.0976 649.151 68.829 647.472 63.7162C646.671 61.217 646.06 59.2711 645.564 57.8594L645.107 56.3332C645.049 56.2176 645.004 56.096 644.973 55.9707Z" fill="#263238"/>
<path d="M591.25 29.6623C591.25 29.6623 590.239 29.1663 588.369 28.4032C585.705 27.3792 582.886 26.8117 580.033 26.7243C575.803 26.5793 571.594 27.3742 567.708 29.0518C562.984 31.1408 558.944 34.5196 556.052 38.8005C553.141 43.0691 551.579 48.1136 551.569 53.2804C551.609 57.5151 552.251 61.7225 553.477 65.7762C554.469 69.2483 555.499 72.0146 556.186 73.9414C556.591 74.9201 556.922 75.9276 557.178 76.9557C556.636 76.0406 556.182 75.076 555.823 74.075C555.041 72.1672 553.915 69.4582 552.809 65.967C551.451 61.8708 550.711 57.5948 550.615 53.2804C550.564 47.9185 552.162 42.6705 555.194 38.2472C558.186 33.81 562.391 30.3267 567.308 28.2124C571.314 26.5256 575.655 25.7815 579.994 26.0376C582.91 26.1861 585.774 26.8649 588.446 28.0407C589.16 28.3703 589.849 28.7529 590.506 29.1854C590.778 29.3046 591.029 29.4655 591.25 29.6623Z" fill="#263238"/>
<path d="M592.127 104.314C592.432 104.129 592.751 103.97 593.081 103.837C594.036 103.406 595.025 103.055 596.038 102.787C597.646 102.313 599.305 102.031 600.979 101.948C603.257 101.826 605.536 102.17 607.676 102.959C612.56 104.676 617.043 109.655 619.256 116.313C620.317 119.886 620.317 123.691 619.256 127.264C618.079 131.142 615.97 134.673 613.113 137.547L613.227 137.032C615.765 143.995 618.531 151.55 621.393 159.429L621.564 159.906L621.087 160.077L616.719 161.527L607.18 164.713L606.703 164.866L606.55 164.389C603.936 156.491 601.075 149.127 598.919 141.896L599.339 142.221C595.609 141.911 592.053 140.511 589.113 138.195C586.453 136.147 584.272 133.543 582.722 130.564C581.324 127.923 580.627 124.967 580.7 121.979C580.788 118.926 581.551 115.93 582.933 113.206C584.315 110.481 586.282 108.096 588.694 106.221C589.686 105.416 590.8 104.772 591.994 104.314C590.916 104.953 589.872 105.647 588.865 106.393C586.216 108.634 584.186 111.518 582.97 114.768C581.927 117.219 581.438 119.87 581.541 122.532C581.643 125.194 582.333 127.8 583.562 130.164C585.086 133.029 587.214 135.528 589.8 137.49C592.605 139.691 595.995 141.018 599.549 141.305H599.873L599.968 141.591C602.067 148.688 604.948 156.109 607.599 164.046L606.97 163.74L616.509 160.554L620.858 159.085L620.553 159.734C617.711 151.855 614.963 144.281 612.445 137.318V137.032L612.674 136.803C615.448 134.048 617.516 130.664 618.703 126.94C619.714 123.522 619.714 119.884 618.703 116.466C616.623 110.056 612.331 105.191 607.676 103.474C605.615 102.68 603.415 102.31 601.208 102.387C599.56 102.425 597.922 102.648 596.325 103.054C593.482 103.76 592.147 104.409 592.127 104.314Z" fill="#263238"/>
<path d="M533.159 655.159L342.592 654.281C331.587 654.221 321.056 649.795 313.312 641.976C305.568 634.156 301.244 623.583 301.289 612.578L303.312 134.856C303.334 129.404 304.431 124.009 306.539 118.981C308.648 113.953 311.727 109.39 315.6 105.552C319.473 101.714 324.064 98.6776 329.111 96.6155C334.159 94.5533 339.563 93.5061 345.015 93.5337L535.562 94.4113C546.567 94.4668 557.1 98.888 564.848 106.704C572.596 114.519 576.925 125.091 576.884 136.096L574.862 613.799C574.84 619.253 573.743 624.649 571.635 629.679C569.527 634.71 566.449 639.276 562.576 643.116C558.704 646.957 554.113 649.997 549.065 652.063C544.018 654.13 538.613 655.182 533.159 655.159Z" fill="#455A64"/>
<path d="M535.276 110.837H498.342C497.137 110.859 495.948 111.119 494.843 111.6C493.738 112.082 492.739 112.777 491.903 113.645C491.067 114.513 490.41 115.538 489.97 116.66C489.529 117.782 489.314 118.98 489.337 120.185V126.881C489.36 128.085 489.145 129.282 488.704 130.403C488.264 131.524 487.607 132.547 486.77 133.413C485.934 134.28 484.935 134.973 483.83 135.453C482.725 135.933 481.537 136.19 480.333 136.21L408.334 135.886C405.898 135.821 403.588 134.792 401.91 133.025C400.232 131.258 399.325 128.897 399.386 126.461V119.765C399.448 117.332 398.543 114.975 396.869 113.208C395.196 111.442 392.89 110.411 390.458 110.341H377.466L345.13 110.188C337.438 110.142 330.042 113.146 324.561 118.542C319.079 123.937 315.959 131.285 315.884 138.976L313.976 605.271C313.958 609.086 314.692 612.868 316.136 616.4C317.58 619.932 319.706 623.145 322.391 625.855C325.077 628.565 328.27 630.72 331.789 632.197C335.307 633.673 339.082 634.442 342.898 634.459L533.063 635.337C536.881 635.355 540.665 634.62 544.199 633.175C547.734 631.73 550.949 629.603 553.661 626.916C556.373 624.228 558.529 621.033 560.007 617.512C561.484 613.992 562.253 610.214 562.271 606.396L564.179 140.102C564.224 132.389 561.205 124.974 555.786 119.486C550.366 113.998 542.989 110.887 535.276 110.837Z" fill="white"/>
<path d="M509.693 573.125L368.29 572.514C366.821 572.514 365.638 570.912 365.657 568.966L365.81 531.974C365.81 530.066 367.012 528.426 368.481 528.426L509.884 529.074C510.698 529.215 511.426 529.665 511.917 530.329C512.407 530.994 512.622 531.823 512.517 532.642L512.383 569.595C512.383 571.56 511.162 573.144 509.693 573.125Z" fill="#FFBB15"/>
<path d="M410.624 542.983C410.589 542.69 410.449 542.463 410.202 542.301C409.956 542.14 409.654 542.059 409.296 542.059C409.034 542.059 408.805 542.101 408.608 542.186C408.414 542.27 408.262 542.387 408.152 542.535C408.044 542.683 407.991 542.852 407.991 543.04C407.991 543.198 408.028 543.334 408.103 543.448C408.18 543.559 408.278 543.653 408.398 543.728C408.517 543.801 408.642 543.861 408.773 543.91C408.904 543.956 409.024 543.993 409.134 544.022L409.735 544.184C409.889 544.224 410.06 544.28 410.249 544.351C410.439 544.423 410.621 544.52 410.794 544.643C410.97 544.764 411.114 544.92 411.227 545.111C411.341 545.301 411.398 545.535 411.398 545.813C411.398 546.132 411.314 546.421 411.147 546.679C410.981 546.937 410.739 547.142 410.419 547.294C410.101 547.446 409.715 547.522 409.261 547.522C408.838 547.522 408.471 547.454 408.161 547.317C407.853 547.18 407.61 546.99 407.433 546.745C407.258 546.501 407.159 546.217 407.136 545.893H407.875C407.894 546.117 407.969 546.301 408.1 546.448C408.233 546.592 408.401 546.7 408.603 546.771C408.807 546.84 409.026 546.875 409.261 546.875C409.534 546.875 409.78 546.831 409.997 546.742C410.215 546.652 410.387 546.527 410.514 546.367C410.641 546.205 410.705 546.017 410.705 545.801C410.705 545.605 410.65 545.445 410.54 545.322C410.431 545.198 410.286 545.098 410.107 545.021C409.928 544.944 409.735 544.877 409.527 544.819L408.799 544.611C408.337 544.478 407.971 544.289 407.702 544.042C407.432 543.796 407.298 543.474 407.298 543.075C407.298 542.744 407.387 542.455 407.566 542.209C407.747 541.961 407.99 541.768 408.294 541.631C408.6 541.493 408.942 541.423 409.319 541.423C409.7 541.423 410.039 541.492 410.335 541.628C410.632 541.763 410.867 541.948 411.04 542.183C411.215 542.418 411.307 542.684 411.317 542.983H410.624ZM413.291 541.504V547.418H412.575V541.504H413.291ZM419.417 541.504V547.418H418.723L415.501 542.775H415.443V547.418H414.727V541.504H415.42L418.654 546.159H418.712V541.504H419.417ZM424.892 543.352C424.828 543.158 424.745 542.984 424.641 542.83C424.539 542.674 424.417 542.541 424.274 542.431C424.134 542.321 423.974 542.238 423.795 542.18C423.616 542.122 423.419 542.093 423.206 542.093C422.855 542.093 422.537 542.184 422.25 542.365C421.963 542.546 421.735 542.812 421.566 543.165C421.396 543.517 421.311 543.949 421.311 544.461C421.311 544.973 421.397 545.405 421.568 545.758C421.74 546.11 421.972 546.377 422.264 546.557C422.557 546.738 422.886 546.829 423.252 546.829C423.591 546.829 423.889 546.757 424.147 546.612C424.407 546.466 424.609 546.26 424.753 545.994C424.9 545.727 424.973 545.412 424.973 545.05L425.192 545.096H423.414V544.461H425.666V545.096C425.666 545.583 425.562 546.007 425.354 546.367C425.148 546.727 424.863 547.006 424.499 547.204C424.137 547.401 423.722 547.499 423.252 547.499C422.728 547.499 422.268 547.376 421.872 547.129C421.477 546.883 421.169 546.532 420.948 546.078C420.728 545.624 420.618 545.085 420.618 544.461C420.618 543.993 420.681 543.573 420.806 543.199C420.933 542.824 421.112 542.504 421.343 542.241C421.574 541.977 421.848 541.775 422.163 541.634C422.479 541.494 422.826 541.423 423.206 541.423C423.518 541.423 423.808 541.471 424.078 541.565C424.349 541.657 424.591 541.789 424.802 541.961C425.016 542.13 425.194 542.333 425.337 542.57C425.479 542.805 425.577 543.065 425.631 543.352H424.892ZM433.06 541.504H433.776V545.42C433.776 545.824 433.681 546.185 433.49 546.503C433.302 546.818 433.035 547.068 432.69 547.25C432.346 547.431 431.942 547.522 431.478 547.522C431.014 547.522 430.61 547.431 430.265 547.25C429.92 547.068 429.653 546.818 429.462 546.503C429.274 546.185 429.179 545.824 429.179 545.42V541.504H429.895V545.362C429.895 545.651 429.959 545.908 430.086 546.133C430.213 546.356 430.394 546.532 430.629 546.661C430.866 546.788 431.149 546.852 431.478 546.852C431.807 546.852 432.09 546.788 432.327 546.661C432.563 546.532 432.744 546.356 432.87 546.133C432.997 545.908 433.06 545.651 433.06 545.362V541.504ZM435.206 547.418V541.504H437.204C437.668 541.504 438.048 541.588 438.342 541.756C438.639 541.921 438.858 542.145 439 542.428C439.143 542.711 439.214 543.027 439.214 543.375C439.214 543.724 439.143 544.041 439 544.325C438.86 544.61 438.642 544.837 438.348 545.007C438.053 545.174 437.676 545.258 437.216 545.258H435.784V544.623H437.193C437.51 544.623 437.766 544.568 437.958 544.458C438.151 544.349 438.29 544.2 438.377 544.014C438.465 543.825 438.51 543.612 438.51 543.375C438.51 543.139 438.465 542.927 438.377 542.74C438.29 542.553 438.15 542.407 437.955 542.301C437.761 542.193 437.503 542.14 437.181 542.14H435.922V547.418H435.206Z" fill="#E8E8E3"/>
<path d="M396.494 247.91L347.427 247.688L347.386 256.692L396.453 256.915L396.494 247.91Z" fill="#FFBB15"/>
<path opacity="0.1" d="M396.494 247.91L347.427 247.688L347.386 256.692L396.453 256.915L396.494 247.91Z" fill="black"/>
<path d="M540.332 303.197C540.717 303.158 541.096 303.068 541.457 302.93C541.985 302.724 542.444 302.372 542.782 301.917C543.119 301.461 543.321 300.92 543.365 300.354C543.365 297.321 543.365 292.895 543.365 287.21C543.365 284.367 543.365 281.181 543.365 277.671C543.365 276.813 543.365 275.916 543.365 275.019C543.489 274.149 543.3 273.263 542.831 272.52C542.568 272.164 542.227 271.873 541.833 271.671C541.439 271.469 541.003 271.362 540.561 271.357H537.585H510.017L350.452 270.765C350.044 270.758 349.64 270.85 349.275 271.033C348.909 271.215 348.593 271.483 348.354 271.814C347.893 272.561 347.717 273.448 347.858 274.314C347.858 276.221 347.858 278.129 347.858 280.037C347.858 283.852 347.858 287.668 347.858 291.483C347.858 293.391 347.858 295.299 347.858 297.207C347.779 298.095 347.779 298.989 347.858 299.878C347.958 300.258 348.144 300.611 348.402 300.909C348.66 301.207 348.983 301.441 349.346 301.595C349.722 301.744 350.124 301.816 350.529 301.804H360.239L402.611 302.033L474.342 302.472L522.704 302.854L535.848 303.006H539.263C540.046 303.006 540.427 303.006 540.427 303.006H539.263H535.848H522.704H474.342L402.611 302.777L360.239 302.606H350.529C349.994 302.627 349.461 302.536 348.964 302.339C348.462 302.124 348.015 301.798 347.658 301.385C347.301 300.971 347.043 300.482 346.904 299.954C346.794 299.453 346.755 298.939 346.789 298.428V297.016C346.789 295.108 346.789 293.2 346.789 291.293C346.789 287.477 346.789 283.662 346.789 279.846C346.789 277.938 346.789 276.031 346.789 274.123C346.753 273.615 346.753 273.105 346.789 272.597C346.861 272.035 347.078 271.503 347.419 271.051C347.748 270.591 348.184 270.217 348.689 269.961C349.194 269.705 349.753 269.575 350.319 269.582L509.884 270.46L537.451 270.651H540.427C540.951 270.651 541.468 270.778 541.933 271.02C542.398 271.263 542.797 271.614 543.098 272.043C543.636 272.873 543.853 273.87 543.708 274.848C543.708 275.744 543.708 276.641 543.708 277.499C543.708 280.972 543.708 284.158 543.708 287.038C543.708 292.762 543.575 297.149 543.537 300.202C543.49 300.789 543.277 301.35 542.922 301.82C542.567 302.29 542.085 302.648 541.534 302.854C541.173 303.077 540.756 303.196 540.332 303.197Z" fill="#E0E0E0"/>
<path d="M451.907 280.342H362.166V288.755H451.907V280.342Z" fill="#FFBB15"/>
<path opacity="0.2" d="M451.907 280.342H362.166V288.755H451.907V280.342Z" fill="white"/>
<path d="M396.16 330.057L347.093 329.834L347.052 338.839L396.119 339.061L396.16 330.057Z" fill="#FFBB15"/>
<path opacity="0.1" d="M396.16 330.057L347.093 329.834L347.052 338.839L396.119 339.061L396.16 330.057Z" fill="black"/>
<path d="M539.091 385.344C539.477 385.297 539.859 385.227 540.236 385.134C540.769 384.965 541.259 384.683 541.674 384.308C542.089 383.933 542.418 383.473 542.64 382.96C542.94 382.189 543.058 381.36 542.983 380.537C542.983 379.621 542.983 378.629 542.983 377.522C542.983 375.309 542.983 372.791 542.983 369.891V357.777C543.074 356.9 542.88 356.017 542.43 355.259C541.959 354.481 541.219 353.904 540.35 353.637C539.4 353.468 538.433 353.417 537.47 353.485H510.017L351.005 352.893C350.15 352.895 349.325 353.208 348.682 353.773C348.04 354.338 347.625 355.117 347.514 355.965C347.514 357.777 347.514 359.78 347.514 361.688C347.514 365.504 347.514 369.319 347.514 373.135C347.514 375.042 347.514 376.95 347.514 378.858C347.443 379.75 347.482 380.647 347.629 381.529C347.867 382.302 348.357 382.974 349.021 383.437C349.726 383.884 350.554 384.097 351.387 384.047H354.039H359.552L401.771 384.257L473.255 384.696L521.445 385.077L534.551 385.23H521.445H473.255L401.733 385.154L359.514 385.001H351.215C350.183 385.062 349.159 384.788 348.296 384.219C347.428 383.617 346.795 382.735 346.503 381.72C346.332 380.75 346.281 379.763 346.35 378.782C346.35 376.874 346.35 374.966 346.35 373.058C346.35 369.243 346.35 365.427 346.35 361.612C346.35 359.704 346.35 357.796 346.35 355.889C346.49 354.798 347.022 353.795 347.847 353.068C348.672 352.341 349.734 351.94 350.834 351.939L509.845 352.817L537.298 353.027C538.32 352.964 539.346 353.035 540.35 353.237C541.342 353.561 542.178 354.24 542.697 355.144C543.191 355.985 543.404 356.96 543.307 357.93C543.307 358.826 543.307 359.704 543.307 360.582C543.307 364.035 543.307 367.202 543.307 370.12C543.307 373.039 543.307 375.5 543.307 377.751C543.307 378.839 543.307 379.85 543.307 380.785C543.377 381.638 543.239 382.495 542.907 383.284C542.659 383.81 542.301 384.277 541.857 384.652C541.412 385.028 540.892 385.303 540.331 385.459C539.915 385.493 539.495 385.454 539.091 385.344Z" fill="#E0E0E0"/>
<path d="M395.79 415.77L346.723 415.547L346.682 424.551L395.749 424.774L395.79 415.77Z" fill="#FFBB15"/>
<path opacity="0.1" d="M395.79 415.77L346.723 415.547L346.682 424.551L395.749 424.774L395.79 415.77Z" fill="black"/>
<path d="M538.71 471.022C539.096 470.976 539.478 470.906 539.855 470.812C540.385 470.644 540.874 470.364 541.288 469.993C541.703 469.621 542.033 469.165 542.259 468.656C542.558 467.886 542.675 467.057 542.602 466.234C542.602 465.299 542.602 464.326 542.602 463.2C542.602 461.006 542.602 458.469 542.602 455.569V443.455C542.693 442.578 542.499 441.695 542.049 440.937C541.567 440.173 540.83 439.606 539.969 439.334C539.02 439.158 538.052 439.1 537.089 439.162H509.636L350.624 438.571C349.769 438.573 348.943 438.886 348.301 439.451C347.659 440.016 347.244 440.794 347.133 441.643C347.133 443.55 347.133 445.458 347.133 447.366C347.133 451.181 347.133 454.997 347.133 458.812C347.133 460.72 347.133 462.628 347.133 464.536C347.062 465.421 347.1 466.312 347.247 467.187C347.476 467.966 347.968 468.64 348.64 469.095C349.34 469.552 350.172 469.767 351.006 469.706H359.304L401.523 469.935L473.007 470.373L521.197 470.755L534.303 470.908H521.197H473.007L401.523 470.698L359.304 470.526H351.006C349.973 470.596 348.946 470.321 348.087 469.744C347.219 469.142 346.585 468.26 346.294 467.245C346.123 466.275 346.071 465.289 346.141 464.307C346.141 462.399 346.141 460.491 346.141 458.583C346.141 454.768 346.141 450.952 346.141 447.137C346.141 445.229 346.141 443.321 346.141 441.318C346.276 440.229 346.804 439.226 347.626 438.499C348.448 437.772 349.508 437.37 350.605 437.369L509.617 438.247L537.07 438.457C538.092 438.394 539.118 438.464 540.122 438.666C541.113 438.99 541.949 439.67 542.468 440.574C542.962 441.414 543.176 442.39 543.079 443.359C543.079 444.256 543.079 445.153 543.079 446.011C543.079 449.464 543.079 452.631 543.079 455.55C543.079 458.469 543.079 460.93 543.079 463.181C543.079 464.269 543.079 465.28 543.079 466.214C543.152 467.068 543.015 467.926 542.678 468.714C542.431 469.24 542.072 469.707 541.628 470.082C541.184 470.457 540.663 470.733 540.103 470.888C539.656 471.042 539.178 471.087 538.71 471.022Z" fill="#E0E0E0"/>
<path d="M449.991 364.868L360.251 364.461L360.213 372.874L449.953 373.281L449.991 364.868Z" fill="#FFBB15"/>
<path opacity="0.2" d="M449.991 364.868L360.251 364.461L360.213 372.874L449.953 373.281L449.991 364.868Z" fill="white"/>
<path d="M368.367 455.454C368.31 456.221 368.03 456.955 367.56 457.565C367.091 458.174 366.453 458.633 365.725 458.883C364.997 459.133 364.212 459.164 363.467 458.972C362.722 458.78 362.049 458.374 361.533 457.803C361.017 457.233 360.679 456.523 360.563 455.763C360.446 455.002 360.555 454.224 360.876 453.525C361.198 452.826 361.717 452.236 362.37 451.83C363.024 451.423 363.782 451.217 364.551 451.238C365.614 451.297 366.611 451.773 367.325 452.562C368.039 453.351 368.413 454.39 368.367 455.454Z" fill="#FFBB15"/>
<path d="M380.519 455.512C380.556 456.05 380.483 456.59 380.303 457.098C380.123 457.606 379.84 458.072 379.472 458.466C379.105 458.861 378.66 459.175 378.165 459.39C377.671 459.605 377.138 459.716 376.598 459.716C376.059 459.716 375.526 459.605 375.031 459.39C374.537 459.175 374.092 458.861 373.724 458.466C373.357 458.072 373.074 457.606 372.894 457.098C372.714 456.59 372.64 456.05 372.678 455.512C372.64 454.974 372.714 454.435 372.894 453.926C373.074 453.418 373.357 452.952 373.724 452.558C374.092 452.164 374.537 451.849 375.031 451.635C375.526 451.42 376.059 451.309 376.598 451.309C377.138 451.309 377.671 451.42 378.165 451.635C378.66 451.849 379.105 452.164 379.472 452.558C379.84 452.952 380.123 453.418 380.303 453.926C380.483 454.435 380.556 454.974 380.519 455.512Z" fill="#FFBB15"/>
<path d="M392.69 455.569C392.634 456.337 392.354 457.07 391.884 457.68C391.414 458.29 390.776 458.748 390.049 458.998C389.321 459.248 388.536 459.279 387.791 459.087C387.046 458.895 386.373 458.489 385.857 457.919C385.341 457.348 385.003 456.639 384.886 455.878C384.77 455.117 384.879 454.339 385.2 453.64C385.521 452.941 386.041 452.352 386.694 451.945C387.347 451.538 388.106 451.333 388.875 451.353C389.936 451.417 390.93 451.894 391.643 452.682C392.356 453.471 392.732 454.507 392.69 455.569Z" fill="#FFBB15"/>
<path d="M404.843 455.626C404.786 456.393 404.506 457.127 404.036 457.737C403.567 458.346 402.929 458.804 402.201 459.055C401.473 459.305 400.688 459.336 399.943 459.144C399.198 458.952 398.526 458.546 398.009 457.975C397.493 457.405 397.155 456.695 397.039 455.935C396.922 455.174 397.031 454.396 397.352 453.697C397.674 452.998 398.193 452.408 398.846 452.002C399.5 451.595 400.258 451.389 401.027 451.41C402.088 451.474 403.082 451.951 403.795 452.739C404.508 453.527 404.884 454.564 404.843 455.626Z" fill="#FFBB15"/>
<path d="M416.995 455.665C416.943 456.434 416.665 457.17 416.198 457.782C415.73 458.394 415.093 458.856 414.366 459.109C413.638 459.362 412.852 459.395 412.106 459.205C411.359 459.016 410.685 458.61 410.167 458.04C409.648 457.47 409.309 456.761 409.191 455.999C409.073 455.238 409.181 454.459 409.502 453.759C409.823 453.059 410.343 452.468 410.997 452.061C411.651 451.654 412.41 451.448 413.18 451.468C414.237 451.532 415.228 452.007 415.941 452.791C416.654 453.575 417.032 454.606 416.995 455.665Z" fill="#FFBB15"/>
<path d="M429.166 455.722C429.114 456.487 428.84 457.22 428.377 457.83C427.914 458.441 427.282 458.903 426.56 459.159C425.838 459.415 425.056 459.455 424.312 459.273C423.568 459.091 422.893 458.695 422.37 458.135C421.848 457.574 421.501 456.873 421.372 456.117C421.242 455.362 421.337 454.585 421.644 453.883C421.95 453.181 422.456 452.583 423.097 452.164C423.739 451.746 424.489 451.523 425.255 451.525C426.33 451.565 427.345 452.029 428.078 452.816C428.811 453.603 429.202 454.648 429.166 455.722Z" fill="#FFBB15"/>
<path d="M441.319 455.78C441.356 456.318 441.283 456.857 441.103 457.366C440.923 457.874 440.64 458.34 440.272 458.734C439.905 459.128 439.46 459.443 438.965 459.658C438.471 459.873 437.937 459.983 437.398 459.983C436.859 459.983 436.326 459.873 435.831 459.658C435.337 459.443 434.892 459.128 434.524 458.734C434.156 458.34 433.874 457.874 433.694 457.366C433.514 456.857 433.44 456.318 433.478 455.78C433.44 455.242 433.514 454.702 433.694 454.194C433.874 453.686 434.156 453.22 434.524 452.826C434.892 452.431 435.337 452.117 435.831 451.902C436.326 451.687 436.859 451.576 437.398 451.576C437.937 451.576 438.471 451.687 438.965 451.902C439.46 452.117 439.905 452.431 440.272 452.826C440.64 453.22 440.923 453.686 441.103 454.194C441.283 454.702 441.356 455.242 441.319 455.78Z" fill="#FFBB15"/>
<path d="M453.471 455.836C453.419 456.6 453.145 457.333 452.682 457.944C452.219 458.554 451.587 459.016 450.865 459.272C450.143 459.529 449.362 459.568 448.617 459.386C447.873 459.204 447.198 458.808 446.675 458.248C446.153 457.687 445.806 456.986 445.677 456.231C445.548 455.475 445.642 454.699 445.949 453.996C446.255 453.294 446.761 452.697 447.402 452.278C448.044 451.859 448.794 451.637 449.561 451.639C450.635 451.678 451.65 452.143 452.383 452.929C453.116 453.716 453.508 454.761 453.471 455.836Z" fill="#FFBB15"/>
<path d="M465.624 455.894C465.571 456.662 465.294 457.398 464.826 458.011C464.359 458.623 463.722 459.084 462.994 459.337C462.266 459.59 461.481 459.624 460.734 459.434C459.987 459.244 459.313 458.839 458.795 458.269C458.277 457.699 457.938 456.989 457.819 456.228C457.701 455.467 457.81 454.688 458.131 453.987C458.452 453.287 458.971 452.697 459.625 452.289C460.279 451.882 461.038 451.676 461.808 451.697C462.866 451.761 463.857 452.235 464.569 453.019C465.282 453.803 465.66 454.835 465.624 455.894Z" fill="#FFBB15"/>
<g opacity="0.2">
<path d="M368.367 455.454C368.31 456.221 368.03 456.955 367.56 457.565C367.091 458.174 366.453 458.633 365.725 458.883C364.997 459.133 364.212 459.164 363.467 458.972C362.722 458.78 362.049 458.374 361.533 457.803C361.017 457.233 360.679 456.523 360.563 455.763C360.446 455.002 360.555 454.224 360.876 453.525C361.198 452.826 361.717 452.236 362.37 451.83C363.024 451.423 363.782 451.217 364.551 451.238C365.614 451.297 366.611 451.773 367.325 452.562C368.039 453.351 368.413 454.39 368.367 455.454Z" fill="white"/>
<path d="M380.519 455.51C380.556 456.048 380.483 456.588 380.303 457.096C380.123 457.604 379.84 458.07 379.472 458.464C379.105 458.859 378.66 459.173 378.165 459.388C377.671 459.603 377.138 459.714 376.598 459.714C376.059 459.714 375.526 459.603 375.031 459.388C374.537 459.173 374.092 458.859 373.724 458.464C373.357 458.07 373.074 457.604 372.894 457.096C372.714 456.588 372.64 456.048 372.678 455.51C372.64 454.972 372.714 454.433 372.894 453.924C373.074 453.416 373.357 452.951 373.724 452.556C374.092 452.162 374.537 451.848 375.031 451.633C375.526 451.418 376.059 451.307 376.598 451.307C377.138 451.307 377.671 451.418 378.165 451.633C378.66 451.848 379.105 452.162 379.472 452.556C379.84 452.951 380.123 453.416 380.303 453.924C380.483 454.433 380.556 454.972 380.519 455.51Z" fill="white"/>
<path d="M392.69 455.567C392.634 456.335 392.354 457.069 391.884 457.678C391.414 458.288 390.776 458.746 390.049 458.996C389.321 459.246 388.536 459.277 387.791 459.085C387.046 458.894 386.373 458.487 385.857 457.917C385.341 457.346 385.003 456.637 384.886 455.876C384.77 455.115 384.879 454.337 385.2 453.638C385.521 452.939 386.041 452.35 386.694 451.943C387.347 451.537 388.106 451.331 388.875 451.351C389.936 451.415 390.93 451.892 391.643 452.681C392.356 453.469 392.732 454.505 392.69 455.567Z" fill="white"/>
<path d="M404.843 455.626C404.786 456.393 404.506 457.127 404.036 457.737C403.567 458.346 402.929 458.804 402.201 459.055C401.473 459.305 400.688 459.336 399.943 459.144C399.198 458.952 398.526 458.546 398.009 457.975C397.493 457.405 397.155 456.695 397.039 455.935C396.922 455.174 397.031 454.396 397.352 453.697C397.674 452.998 398.193 452.408 398.846 452.002C399.5 451.595 400.258 451.389 401.027 451.41C402.088 451.474 403.082 451.951 403.795 452.739C404.508 453.527 404.884 454.564 404.843 455.626Z" fill="white"/>
<path d="M416.995 455.663C416.943 456.432 416.665 457.168 416.198 457.78C415.73 458.392 415.093 458.854 414.366 459.107C413.638 459.36 412.852 459.393 412.106 459.203C411.359 459.014 410.685 458.608 410.167 458.038C409.648 457.468 409.309 456.759 409.191 455.998C409.073 455.236 409.181 454.457 409.502 453.757C409.823 453.057 410.343 452.466 410.997 452.059C411.651 451.652 412.41 451.446 413.18 451.466C414.237 451.53 415.228 452.005 415.941 452.789C416.654 453.573 417.032 454.604 416.995 455.663Z" fill="white"/>
<path d="M429.167 455.721C429.115 456.485 428.84 457.218 428.377 457.828C427.914 458.439 427.283 458.901 426.56 459.157C425.838 459.413 425.057 459.453 424.312 459.271C423.568 459.089 422.893 458.693 422.371 458.133C421.848 457.572 421.501 456.871 421.372 456.115C421.243 455.36 421.338 454.583 421.644 453.881C421.951 453.179 422.456 452.581 423.098 452.163C423.739 451.744 424.49 451.522 425.256 451.523C426.33 451.563 427.345 452.027 428.078 452.814C428.812 453.601 429.203 454.646 429.167 455.721Z" fill="white"/>
<path d="M441.319 455.778C441.357 456.316 441.283 456.855 441.103 457.364C440.923 457.872 440.64 458.338 440.273 458.732C439.905 459.126 439.46 459.441 438.966 459.656C438.471 459.871 437.938 459.981 437.399 459.981C436.86 459.981 436.326 459.871 435.832 459.656C435.337 459.441 434.892 459.126 434.525 458.732C434.157 458.338 433.874 457.872 433.694 457.364C433.514 456.855 433.441 456.316 433.478 455.778C433.441 455.24 433.514 454.7 433.694 454.192C433.874 453.684 434.157 453.218 434.525 452.824C434.892 452.429 435.337 452.115 435.832 451.9C436.326 451.685 436.86 451.574 437.399 451.574C437.938 451.574 438.471 451.685 438.966 451.9C439.46 452.115 439.905 452.429 440.273 452.824C440.64 453.218 440.923 453.684 441.103 454.192C441.283 454.7 441.357 455.24 441.319 455.778Z" fill="white"/>
<path d="M453.471 455.836C453.419 456.6 453.145 457.333 452.682 457.944C452.219 458.554 451.587 459.016 450.865 459.272C450.143 459.529 449.362 459.568 448.617 459.386C447.873 459.204 447.198 458.808 446.675 458.248C446.153 457.687 445.806 456.986 445.677 456.231C445.548 455.475 445.642 454.699 445.949 453.996C446.255 453.294 446.761 452.697 447.402 452.278C448.044 451.859 448.794 451.637 449.561 451.639C450.635 451.678 451.65 452.143 452.383 452.929C453.116 453.716 453.508 454.761 453.471 455.836Z" fill="white"/>
<path d="M465.624 455.894C465.572 456.662 465.294 457.398 464.827 458.011C464.359 458.623 463.722 459.084 462.994 459.337C462.267 459.59 461.481 459.624 460.734 459.434C459.988 459.244 459.314 458.839 458.795 458.269C458.277 457.699 457.938 456.989 457.82 456.228C457.702 455.467 457.81 454.688 458.131 453.987C458.452 453.287 458.972 452.697 459.626 452.289C460.28 451.882 461.039 451.676 461.809 451.697C462.866 451.761 463.857 452.235 464.57 453.019C465.283 453.803 465.661 454.835 465.624 455.894Z" fill="white"/>
</g>
<path d="M448.358 180.489C449.684 179.905 450.808 178.945 451.592 177.727C452.375 176.509 452.783 175.088 452.765 173.64C452.815 172.699 452.672 171.757 452.346 170.873C452.02 169.989 451.517 169.18 450.868 168.496C450.219 167.813 449.438 167.268 448.572 166.896C447.706 166.524 446.773 166.332 445.831 166.332C444.888 166.332 443.955 166.524 443.089 166.896C442.223 167.268 441.442 167.813 440.793 168.496C440.145 169.18 439.642 169.989 439.316 170.873C438.989 171.757 438.847 172.699 438.896 173.64C438.867 175.103 439.272 176.541 440.06 177.773C440.847 179.006 441.983 179.977 443.322 180.565C432.639 182.168 433.116 193.767 433.116 193.767L458.374 193.881C458.374 193.881 458.966 182.072 448.358 180.489Z" fill="#FFBB15"/>
<path opacity="0.1" d="M448.358 180.489C449.684 179.905 450.808 178.945 451.592 177.727C452.375 176.509 452.783 175.088 452.765 173.64C452.815 172.699 452.672 171.757 452.346 170.873C452.02 169.989 451.517 169.18 450.868 168.496C450.219 167.813 449.438 167.268 448.572 166.896C447.706 166.524 446.773 166.332 445.831 166.332C444.888 166.332 443.955 166.524 443.089 166.896C442.223 167.268 441.442 167.813 440.793 168.496C440.145 169.18 439.642 169.989 439.316 170.873C438.989 171.757 438.847 172.699 438.896 173.64C438.867 175.103 439.272 176.541 440.06 177.773C440.847 179.006 441.983 179.977 443.322 180.565C432.639 182.168 433.116 193.767 433.116 193.767L458.374 193.881C458.374 193.881 458.966 182.072 448.358 180.489Z" fill="black"/>
<path d="M489.403 201.362L399.377 200.953L399.328 211.713L489.354 212.121L489.403 201.362Z" fill="#FFBB15"/>
<path opacity="0.2" d="M489.403 201.362L399.377 200.953L399.328 211.713L489.354 212.121L489.403 201.362Z" fill="white"/>
<path d="M158.437 257.125H157.54L154.946 257.316C153.541 257.4 152.145 257.585 150.768 257.869C149.875 257.994 148.99 258.166 148.116 258.384L145.159 259.205C140.126 260.749 135.377 263.1 131.099 266.168C125.446 270.271 120.725 275.524 117.248 281.583C115.204 285.075 113.578 288.795 112.402 292.667C111.167 296.875 110.456 301.219 110.285 305.601C110.171 307.903 110.209 310.21 110.399 312.507C110.399 313.671 110.724 314.835 110.876 316.018C111.005 317.21 111.228 318.39 111.544 319.547C113.259 327.202 116.74 334.351 121.709 340.422C126.677 346.494 132.996 351.32 140.16 354.516C145.346 356.754 150.904 358.003 156.548 358.198C162.378 358.519 168.213 357.682 173.718 355.737L175.397 355.108H175.626L175.816 355.222L199.873 367.432L199.167 368.042C196.592 360.068 194.112 352.341 191.708 344.92V344.634L191.918 344.424C197.754 338.546 202.086 331.348 204.547 323.439C206.777 316.208 207.427 308.584 206.455 301.08C205.59 294.411 203.446 287.972 200.14 282.117C197.291 277.087 193.615 272.572 189.266 268.762C185.678 265.747 181.708 263.22 177.457 261.246C174.241 259.859 170.891 258.804 167.46 258.098L163.645 257.469L160.879 257.259L159.2 257.144H158.627C158.818 257.123 159.01 257.123 159.2 257.144H160.898L163.664 257.259L167.479 257.812C170.953 258.466 174.348 259.483 177.61 260.845C181.933 262.796 185.976 265.317 189.629 268.343C194.057 272.136 197.811 276.651 200.732 281.697C204.131 287.616 206.341 294.142 207.237 300.908C208.29 308.528 207.685 316.285 205.463 323.649C202.986 331.722 198.586 339.074 192.643 345.073L192.757 344.577C195.161 351.998 197.66 359.724 200.255 367.68L200.617 368.844L199.53 368.29L175.473 356.1H175.893L174.176 356.729C168.565 358.704 162.621 359.559 156.682 359.248C150.916 359.028 145.241 357.734 139.951 355.432C129.858 351.11 121.461 343.597 116.046 334.046C113.555 329.635 111.735 324.877 110.647 319.929C110.349 318.742 110.126 317.538 109.98 316.323C109.827 315.121 109.579 313.938 109.522 312.755C109.005 305.967 109.723 299.142 111.639 292.609C112.844 288.684 114.516 284.918 116.619 281.392C120.179 275.279 124.997 269.992 130.755 265.882C135.104 262.806 139.933 260.473 145.044 258.976L148.039 258.213C148.921 258.008 149.812 257.849 150.71 257.736C152.102 257.478 153.512 257.325 154.926 257.278L157.54 257.182C157.837 257.142 158.137 257.123 158.437 257.125Z" fill="#FFBB15"/>
<path d="M169.311 301.614H165.781L158.15 290.893V283.853C158.15 283.853 152.694 283.51 153.343 292.724C153.992 301.939 153.343 299.592 153.343 299.592C153.343 299.592 141.763 299.592 140.809 300.642C139.855 301.691 139.798 312.87 139.664 319.109C139.591 320.612 140.023 322.098 140.89 323.328C141.758 324.559 143.012 325.464 144.453 325.9C144.857 326.012 145.274 326.07 145.693 326.072C148.593 326.072 163.34 323.725 163.34 323.725H169.425L169.311 301.614Z" fill="#FFBB15"/>
<path d="M179.403 299.727L177.228 323.841H171.2V300.223L179.403 299.727Z" fill="#FFBB15"/>
<path d="M251.306 790.65V774.339L222.06 774.129L221.812 798.796L223.624 798.93C231.694 799.445 264.679 800.208 270.097 798.529C276.126 796.66 251.306 790.65 251.306 790.65Z" fill="#FFBB15"/>
<path d="M270.785 797.004C270.785 797.271 259.834 797.5 246.346 797.5C232.858 797.5 221.908 797.271 221.908 797.004C221.908 796.737 232.858 796.508 246.346 796.508C259.834 796.508 270.785 796.737 270.785 797.004Z" fill="#263238"/>
<path d="M251.822 793.988C251.574 793.854 251.822 792.996 252.413 792.08C253.004 791.164 253.806 790.783 253.996 790.974C254.187 791.164 253.787 791.889 253.214 792.672C252.642 793.454 252.07 794.121 251.822 793.988Z" fill="#263238"/>
<path d="M253.691 795.058C253.424 795.058 253.557 793.99 254.13 792.979C254.702 791.967 255.465 791.357 255.675 791.51C255.885 791.662 255.541 792.521 255.007 793.417C254.473 794.314 253.939 795.153 253.691 795.058Z" fill="#263238"/>
<path d="M230.721 796.928C230.607 796.928 230.168 796.584 229.539 795.859C228.77 794.928 227.914 794.072 226.982 793.303C226.066 792.571 224.974 792.091 223.815 791.91C222.919 791.796 222.346 791.91 222.289 791.796C222.232 791.681 222.785 791.281 223.834 791.204C225.219 791.175 226.57 791.634 227.65 792.502C228.662 793.326 229.515 794.328 230.168 795.459C230.607 796.298 230.836 796.851 230.721 796.928Z" fill="#263238"/>
<path d="M251.917 790.916C252.05 791.145 251.554 791.717 250.715 792.023C249.875 792.328 249.131 792.213 249.093 792.023C249.055 791.832 249.646 791.431 250.371 791.164C251.096 790.897 251.764 790.687 251.917 790.916Z" fill="#263238"/>
<path d="M251.459 789.334C251.459 789.62 250.696 789.849 249.704 789.868C248.712 789.887 247.93 789.658 247.949 789.391C247.968 789.124 248.75 788.876 249.704 788.857C250.658 788.838 251.421 789.066 251.459 789.334Z" fill="#263238"/>
<path d="M323.325 790.65V774.339L294.079 774.129L293.831 798.548L295.643 798.682C303.713 799.197 336.717 800.208 342.116 798.529C348.144 796.66 323.325 790.65 323.325 790.65Z" fill="#FFBB15"/>
<path d="M342.803 797.041C342.803 797.308 331.871 797.537 318.364 797.537C304.857 797.537 293.945 797.308 293.945 797.041C293.945 796.774 304.876 796.545 318.364 796.545C331.852 796.545 342.803 796.774 342.803 797.041Z" fill="#263238"/>
<path d="M323.839 793.988C323.61 793.854 323.839 792.996 324.431 792.08C325.022 791.164 325.823 790.783 326.014 790.974C326.205 791.164 325.804 791.889 325.232 792.672C324.66 793.454 324.087 794.121 323.839 793.988Z" fill="#263238"/>
<path d="M325.709 795.058C325.461 795.058 325.575 793.99 326.167 792.979C326.758 791.967 327.502 791.357 327.712 791.51C327.922 791.662 327.559 792.521 327.025 793.417C326.491 794.314 325.976 795.153 325.709 795.058Z" fill="#263238"/>
<path d="M302.74 796.928C302.625 796.928 302.205 796.584 301.557 795.859C300.788 794.928 299.932 794.072 299 793.303C298.084 792.571 296.992 792.091 295.833 791.91C294.956 791.796 294.364 791.91 294.307 791.796C294.25 791.681 294.803 791.281 295.853 791.204C297.237 791.175 298.588 791.634 299.668 792.502C300.685 793.321 301.539 794.324 302.186 795.459C302.625 796.298 302.854 796.851 302.74 796.928Z" fill="#263238"/>
<path d="M323.935 790.916C324.068 791.145 323.572 791.717 322.733 792.023C321.893 792.328 321.149 792.213 321.111 792.023C321.073 791.832 321.664 791.431 322.389 791.164C323.114 790.897 323.782 790.687 323.935 790.916Z" fill="#263238"/>
<path d="M323.515 789.334C323.515 789.62 322.752 789.849 321.76 789.868C320.768 789.887 320.005 789.658 320.024 789.391C320.043 789.124 320.806 788.876 321.76 788.857C322.714 788.838 323.515 789.066 323.515 789.334Z" fill="#263238"/>
<path d="M431.074 306.269C430.311 305.487 428.423 305.869 428.423 305.869C428.612 304.77 428.612 303.648 428.423 302.549C428.079 301.481 425.675 301.691 425.675 301.691C425.565 300.791 425.565 299.881 425.675 298.982C425.695 298.782 425.652 298.582 425.553 298.408C425.454 298.234 425.303 298.094 425.122 298.009C423.985 297.545 422.763 297.324 421.536 297.36C420.067 296.311 426.019 287.974 428.232 285.303C430.445 282.632 430.044 280.553 428.079 280.553C426.725 280.553 419.781 288.565 417.644 291.255C415.507 293.945 409.841 301.424 409.65 295.452C409.46 289.481 407.056 284.979 405.549 284.216C404.042 283.453 402.439 285.246 403.259 286.906C403.98 288.791 404.43 290.77 404.595 292.781C404.802 294.384 404.731 296.011 404.385 297.589C403.752 300.526 402.891 303.409 401.809 306.212H401.657C401.657 306.212 360.029 346.142 357.015 348.984C354.325 351.54 300.221 345.951 289.366 344.806C285.677 344.266 281.953 344.011 278.225 344.043C273.513 344.253 272.673 344.921 267.98 344.978C256.128 345.109 244.303 346.149 232.61 348.087C227.316 348.988 222.37 351.325 218.312 354.844C214.255 358.363 211.242 362.928 209.603 368.043C198.671 402.192 173.908 483.023 169.54 528.428C166.238 534.415 163.258 540.573 160.611 546.876C157.54 555.232 158.284 555.518 159.314 555.709C162.099 556.224 165.266 541.229 166.449 544.854C167.632 548.479 160.44 562.729 163.359 563.149C167.174 563.683 170.207 547.887 170.57 546.628C170.932 545.369 172.821 545.77 172.478 546.952C171.924 548.631 166.564 566.431 170.303 567.003C172.363 567.308 172.592 563.55 172.592 563.55C172.592 563.55 176.408 546.514 178.144 546.857C179.88 547.2 178.029 557.254 177.152 560.612C176.274 563.97 177.495 565.667 179.288 564.847C180.509 564.275 183.428 554.068 184.229 550.749C185.031 547.429 187.034 538.234 189.724 543.557C192.414 548.879 196.496 551.97 198.175 552.046C198.553 552.002 198.91 551.847 199.199 551.599C199.488 551.351 199.696 551.022 199.797 550.655C199.897 550.287 199.886 549.898 199.763 549.538C199.641 549.177 199.413 548.861 199.11 548.631C197.666 547.221 196.427 545.616 195.428 543.862C194.538 542.496 193.893 540.985 193.52 539.398C192.751 536.233 192.304 532.999 192.185 529.744L191.88 527.837C196.153 506.679 208.458 444.582 226.219 404.92L233.507 419.915L236.674 431.018L217.253 478.96L300.088 477.872L287.725 430.293L302.739 380.691C318.975 381.054 360.659 381.664 367.603 378.516C376.341 374.701 421.536 317.62 421.536 317.62C424.482 315.331 427.303 312.886 429.987 310.295C429.987 310.295 432.734 307.986 431.074 306.269Z" fill="#FFBE9D"/>
<path d="M213.609 443.533C216.013 435.33 228.356 394.771 228.356 394.771C228.356 394.771 234.423 427.832 232.82 431.819C231.346 435.233 229.604 438.524 227.612 441.663C213.609 462.973 215.44 473.637 215.44 473.637L300.049 471.062C300.24 459.234 293.239 431.724 291.789 427.336C290.339 422.948 295.166 408.583 295.166 408.583C295.166 408.583 304.704 398.872 304.361 393.874C304.18 389.384 303.625 384.917 302.701 380.52L354.211 382.427L352.589 347.515L278.606 340.113C276.031 347.382 252.737 343.814 252.737 343.814C227.593 344.654 226.028 349.271 215.574 357.398C205.119 365.525 187.816 435.272 187.816 435.272L213.609 443.533Z" fill="#FFBB15"/>
<path d="M263.63 435.274C262.164 435.536 260.671 435.612 259.185 435.502C256.419 435.502 252.623 435.312 248.445 434.892C244.267 434.472 240.489 433.881 237.799 433.347C236.316 433.156 234.862 432.784 233.469 432.24C234.96 432.241 236.449 432.381 237.914 432.66C240.623 433.003 244.381 433.48 248.54 433.9C252.699 434.32 256.476 434.606 259.204 434.797C260.691 434.815 262.173 434.975 263.63 435.274Z" fill="#263238"/>
<path d="M269.43 428.08C267.963 428.799 266.412 429.331 264.813 429.663C257.202 431.664 249.349 432.595 241.481 432.43C239.853 432.483 238.225 432.329 236.636 431.972C238.243 431.769 239.862 431.686 241.481 431.724C244.477 431.629 248.597 431.419 253.138 430.884C257.678 430.35 261.723 429.587 264.584 428.977C266.174 428.552 267.794 428.252 269.43 428.08Z" fill="#263238"/>
<path d="M297.894 395.99C297.855 397.445 297.657 398.891 297.302 400.302C296.806 402.954 296.043 406.578 295.07 410.546C294.097 414.515 293.162 418.177 292.323 420.658C291.985 422.077 291.486 423.453 290.835 424.759C290.941 423.309 291.21 421.876 291.636 420.486C292.361 417.51 293.182 414.076 294.097 410.317C295.013 406.559 295.891 403.125 296.615 400.149C296.874 398.717 297.303 397.32 297.894 395.99Z" fill="#263238"/>
<path d="M214.506 438.669C210.092 437.987 205.737 436.973 201.476 435.635C197.122 434.617 192.85 433.278 188.694 431.629C193.105 432.322 197.46 433.335 201.724 434.662C206.079 435.677 210.351 437.016 214.506 438.669Z" fill="#263238"/>
<path d="M303.617 380.101C302.898 380.225 302.162 380.225 301.442 380.101C299.45 379.897 297.493 379.428 295.624 378.708C292.503 377.536 289.662 375.723 287.283 373.387C284.904 371.051 283.041 368.243 281.812 365.144C280.453 361.735 279.873 358.066 280.114 354.404C280.199 351.383 281.102 348.442 282.727 345.895C283.87 344.179 285.578 342.917 287.554 342.327C288.082 342.182 288.628 342.111 289.175 342.118C289.557 342.118 289.748 342.118 289.748 342.118C289.748 342.118 288.947 342.118 287.668 342.633C285.856 343.302 284.318 344.558 283.3 346.2C280.705 350.283 279.98 357.742 282.746 364.705C284.034 367.989 286.049 370.937 288.641 373.329C290.765 375.285 293.211 376.86 295.872 377.983C298.368 378.97 300.966 379.68 303.617 380.101Z" fill="#263238"/>
<path d="M348.087 381.74C347.61 375.89 347.457 370.018 347.629 364.151C347.48 358.288 347.658 352.422 348.163 346.58C348.641 352.424 348.794 358.29 348.621 364.151C348.781 370.019 348.603 375.892 348.087 381.74Z" fill="#263238"/>
<path d="M278.11 342.251C278.32 337.996 278.759 333.189 278.759 333.189C278.759 333.189 289.29 332.025 289.919 321.151C290.549 310.277 289.919 285.19 289.919 285.19L270.842 275.422L249.666 292.077L252.928 346.448L272.349 347.688C273.833 347.729 275.273 347.18 276.354 346.16C277.434 345.141 278.065 343.735 278.11 342.251Z" fill="#FFBE9D"/>
<path d="M279.999 312.545C279.999 312.545 279.999 312.755 279.827 313.003C279.685 313.183 279.502 313.326 279.292 313.419C279.083 313.512 278.854 313.552 278.625 313.537C277.404 313.537 276.222 312.125 275.802 310.485C275.602 309.69 275.602 308.857 275.802 308.062C275.841 307.715 275.966 307.383 276.166 307.096C276.366 306.81 276.634 306.578 276.947 306.421C277.203 306.315 277.491 306.315 277.748 306.421C277.938 306.516 278.092 306.67 278.187 306.86C278.32 307.184 278.187 307.394 278.187 307.375C278.187 307.356 278.187 307.184 277.996 306.994C277.896 306.857 277.75 306.762 277.584 306.727C277.419 306.692 277.246 306.719 277.099 306.803C276.865 306.944 276.671 307.143 276.534 307.38C276.397 307.616 276.323 307.884 276.317 308.157C276.156 308.867 276.156 309.603 276.317 310.313C276.699 311.801 277.729 313.003 278.645 313.118C278.824 313.142 279.006 313.129 279.18 313.08C279.354 313.03 279.516 312.946 279.656 312.831C279.885 312.679 279.961 312.526 279.999 312.545Z" fill="#EB996E"/>
<path d="M296.463 279.313C294.994 274.315 289.671 271.835 284.826 270.461C277.443 268.362 269.468 267.447 262.257 270.098C255.045 272.75 246.384 277.405 246.384 285.361C242.13 285.017 239.688 288.737 238.009 293.354C236.936 296.167 236.293 299.125 236.101 302.13C235.567 312.546 232.648 326.931 225.895 334.562C222.079 338.816 216.795 341.754 214.62 347.058C212.712 351.655 213.704 357.111 211.93 361.766C210.347 365.868 206.855 368.787 204.299 372.354C201.695 376.401 200.162 381.044 199.845 385.847C199.528 390.649 200.437 395.453 202.487 399.807C204.551 404.05 207.458 407.828 211.03 410.911C214.601 413.994 218.763 416.317 223.262 417.74C232.173 420.451 241.676 420.544 250.639 418.007C257.365 416.399 263.639 413.288 268.991 408.907C274.467 404.435 278.228 398.207 279.637 391.279C280.991 383.496 278.816 375.579 277.195 367.833C272.12 343.356 273.57 342.078 279.98 319.357C280.133 318.956 280.209 318.537 280.323 318.136C280.438 317.735 280.495 317.544 280.571 317.239C280.753 316.341 280.849 315.428 280.857 314.511C279.921 314.859 278.905 314.933 277.928 314.723C276.952 314.514 276.055 314.03 275.344 313.328C274.631 312.58 274.134 311.653 273.906 310.646C273.678 309.638 273.726 308.587 274.047 307.605C274.497 306.531 275.168 305.563 276.015 304.764C276.863 303.966 277.87 303.354 278.969 302.969C281.086 302.092 283.357 301.634 285.436 300.661C289.843 298.562 292.895 294.213 294.975 289.653C296.685 286.493 297.212 282.827 296.463 279.313Z" fill="#263238"/>
<path d="M280.762 313.061C281.165 313.656 281.498 314.296 281.754 314.968C282.326 316.17 283.089 317.868 283.929 319.833L284.081 320.196H283.681L281.773 320.367C280.457 320.367 279.35 320.615 278.053 320.596C277.94 320.571 277.835 320.517 277.748 320.441C277.662 320.364 277.596 320.266 277.557 320.157C277.5 319.984 277.5 319.797 277.557 319.623C277.601 319.366 277.658 319.111 277.728 318.86L278.072 317.506C278.244 316.602 278.513 315.719 278.873 314.873C278.838 315.794 278.703 316.709 278.472 317.601L278.205 318.956C278.11 319.413 277.938 320.119 278.205 320.062C279.159 320.062 280.514 319.852 281.773 319.776L283.681 319.604L283.433 320.024C282.612 318.116 281.926 316.323 281.525 315.083C281.173 314.449 280.916 313.768 280.762 313.061Z" fill="#FFBB15"/>
<path d="M215.441 473.638L300.05 471.062L336.869 614.793L330.097 779.662H285.36L290.835 618.303L258.117 518.241L263.154 786.053L217.94 786.72L213.189 534.991C212.98 527.99 210.69 512.213 211.549 505.269L215.441 473.638Z" fill="#263238"/>
<path d="M269.373 520.282C267.988 520.369 266.598 520.286 265.233 520.034C262.677 519.729 259.185 519.195 255.351 518.431C251.516 517.668 248.082 516.791 245.602 516.085C244.276 515.794 242.994 515.332 241.787 514.711C241.787 514.425 248.006 515.913 255.637 517.459C263.268 519.004 269.411 519.996 269.373 520.282Z" fill="#455A64"/>
<path d="M329.639 770.617C329.639 770.884 319.509 771.113 307.013 771.113C294.517 771.113 284.368 770.884 284.368 770.617C284.368 770.35 294.498 770.121 307.013 770.121C319.528 770.121 329.639 770.331 329.639 770.617Z" fill="#455A64"/>
<path d="M262.753 779.088C262.753 779.374 252.909 779.584 240.776 779.584C228.642 779.584 218.817 779.374 218.817 779.088C218.817 778.802 228.661 778.592 240.776 778.592C252.89 778.592 262.753 778.821 262.753 779.088Z" fill="#455A64"/>
<path d="M256.915 778.401C256.648 778.401 255.465 719.89 254.263 647.72C253.061 575.549 252.356 517 252.604 517C252.852 517 254.073 575.492 255.255 647.701C256.438 719.909 257.201 778.401 256.915 778.401Z" fill="#455A64"/>
<path d="M323.63 770.618C323.609 770.357 323.609 770.096 323.63 769.835V767.546C323.63 765.486 323.782 762.529 323.897 758.77C324.164 751.139 324.545 740.055 325.022 726.472C326.052 699.153 327.502 661.494 329.086 619.924C329.086 619.523 329.086 619.142 329.086 618.798V618.932C319.07 578.869 310.008 542.507 303.426 516.199L295.795 485.083C294.918 481.439 294.25 478.597 293.773 476.613C293.544 475.678 293.392 474.953 293.258 474.4C293.184 474.152 293.139 473.895 293.125 473.637C293.224 473.877 293.3 474.126 293.353 474.381C293.506 474.915 293.697 475.64 293.964 476.556C294.479 478.463 295.223 481.363 296.177 484.988C298.085 492.352 300.775 502.959 304.132 516.027C310.771 542.316 319.929 578.583 330.078 618.703V618.836C330.078 619.18 330.078 619.58 330.078 619.962C328.38 661.532 326.835 699.172 325.709 726.491C325.118 740.093 324.622 751.101 324.278 758.77C324.087 762.586 323.935 765.486 323.839 767.546C323.839 768.519 323.725 769.282 323.706 769.835C323.709 770.098 323.683 770.36 323.63 770.618Z" fill="#455A64"/>
<path d="M309.035 615.441C305.822 616.498 302.511 617.233 299.153 617.635C295.032 618.341 291.522 618.837 289.938 618.914V618.532C290.453 618.685 290.72 618.78 290.72 618.856C290.72 618.933 290.396 618.856 289.862 618.856H288.717L289.862 618.513C291.35 618.074 294.86 617.349 298.981 616.605C302.286 615.888 305.654 615.498 309.035 615.441Z" fill="#455A64"/>
<path d="M308.253 620.916C305.277 621.052 302.295 620.918 299.344 620.516C296.364 620.455 293.395 620.129 290.473 619.543C296.435 619.056 302.436 619.52 308.253 620.916Z" fill="#455A64"/>
<path opacity="0.2" d="M215.078 476.671C216.08 477.958 217.342 479.019 218.782 479.785C220.221 480.551 221.807 481.005 223.434 481.116C226.841 481.52 230.288 481.456 233.678 480.926C255.522 478.503 278.663 476.271 300.049 471.062C272.368 472.608 243.122 472.093 215.44 473.638L215.154 476.004" fill="black"/>
<g opacity="0.2">
<path d="M243.599 515.684L259.204 576.236L258.117 518.24L243.599 515.684Z" fill="black"/>
</g>
</svg>
